<svg xmlns="http://www.w3.org/2000/svg" xmlns:xlink="http://www.w3.org/1999/xlink"><symbol fill="none" id="sprite-arrow_black" viewBox="0 0 36 36"><title>arrow_black</title><path d="M5.371 17.646h25.758M21.513 7c1.373 8.243 9.616 10.647 9.616 10.647m-9.616 10.647c1.373-8.243 9.616-10.647 9.616-10.647" stroke="#000" stroke-width="2" stroke-linecap="round" stroke-linejoin="round"/></symbol><symbol fill="none" id="sprite-arrow" viewBox="0 0 36 36"><title>arrow</title><path d="M5.371 17.646h25.758M21.513 7c1.373 8.243 9.616 10.647 9.616 10.647m-9.616 10.647c1.373-8.243 9.616-10.647 9.616-10.647" stroke="#fff" stroke-width="2" stroke-linecap="round" stroke-linejoin="round"/></symbol><symbol fill="none" id="sprite-chevron-down" viewBox="0 0 12 8"><title>chevron-down</title><path d="M1.378 1.5l4.5 5 4.5-5" stroke="#1F1F1F" stroke-width="1.5" stroke-linecap="round" stroke-linejoin="round"/></symbol><symbol fill="none" id="sprite-clock" viewBox="0 0 20 20"><title>clock</title><path d="M10 0C4.486 0 0 4.486 0 10s4.486 10 10 10 10-4.486 10-10S15.514 0 10 0zm3.293 14.707L9 10.414V4h2v5.586l3.707 3.707-1.414 1.414z" fill="#BFBFBF"/></symbol><symbol fill="none" id="sprite-de" viewBox="0 0 38 38"><title>de</title><path d="M1.182 25.609C3.866 32.844 10.83 38 19 38c8.17 0 15.134-5.156 17.818-12.391L19 23.957 1.182 25.609z" fill="#FFDA44"/><path d="M19 0C10.83 0 3.866 5.156 1.182 12.391L19 14.043l17.818-1.652C34.134 5.156 27.17 0 19 0z" fill="#000"/><path d="M1.182 12.391A18.96 18.96 0 000 19c0 2.324.418 4.55 1.182 6.609h35.636A18.96 18.96 0 0038 19c0-2.324-.418-4.55-1.182-6.609H1.182z" fill="#D80027"/></symbol><symbol fill="none" id="sprite-download" viewBox="0 0 20 18"><title>download</title><path d="M1 12v4.5h18V12" stroke="#1F1F1F" stroke-width="2" stroke-linecap="round"/><path d="M11 1a1 1 0 10-2 0h2zm-1 11l-.707.707.707.707.707-.707L10 12zM6.207 6.793a1 1 0 00-1.414 1.414l1.414-1.414zm9 1.414a1 1 0 00-1.414-1.414l1.414 1.414zM9 1v11h2V1H9zm1.707 10.293l-4.5-4.5-1.414 1.414 4.5 4.5 1.414-1.414zm0 1.414l4.5-4.5-1.414-1.414-4.5 4.5 1.414 1.414z" fill="#1F1F1F"/></symbol><symbol fill="none" id="sprite-es" viewBox="0 0 38 38"><title>es</title><path d="M0 19c0 2.324.418 4.55 1.182 6.609L19 27.26l17.818-1.652A18.96 18.96 0 0038 19c0-2.324-.418-4.55-1.182-6.609L19 10.74 1.182 12.391A18.96 18.96 0 000 19z" fill="#FFDA44"/><path d="M36.818 12.391C34.134 5.156 27.17 0 19 0 10.83 0 3.866 5.156 1.182 12.391h35.636zM1.182 25.609C3.866 32.844 10.83 38 19 38c8.17 0 15.134-5.156 17.818-12.391H1.182z" fill="#D80027"/></symbol><symbol fill="none" id="sprite-facebook-logo" viewBox="0 0 30 31"><title>facebook-logo</title><g clip-path="url(#clip0)"><path d="M30 15.173c0-8.284-6.716-15-15-15-8.284 0-15 6.716-15 15 0 7.486 5.484 13.692 12.656 14.818V19.51h-3.81v-4.337h3.81v-3.306c0-3.759 2.24-5.836 5.666-5.836 1.641 0 3.358.293 3.358.293v3.691h-1.892c-1.862 0-2.444 1.156-2.444 2.344v2.814h4.16l-.665 4.337h-3.495v10.48C24.515 28.867 30 22.661 30 15.173z" fill="#1977F3"/><path d="M20.839 19.51l.664-4.338h-4.16v-2.814c0-1.185.58-2.343 2.445-2.343h1.892V6.323s-1.717-.293-3.358-.293c-3.425 0-5.665 2.076-5.665 5.837v3.305h-3.81v4.337h3.81v10.482a15.312 15.312 0 004.687 0V19.509h3.495z" fill="#FEFEFE"/></g><defs><clipPath id="clip0"><path fill="#fff" transform="translate(0 .173)" d="M0 0h30v30H0z"/></clipPath></defs></symbol><symbol fill="none" id="sprite-fr" viewBox="0 0 38 38"><title>fr</title><g clip-path="url(#clip0)"><path d="M19 38c10.493 0 19-8.507 19-19S29.493 0 19 0 0 8.507 0 19s8.507 19 19 19z" fill="#F0F0F0"/><path d="M38 19c0-8.17-5.156-15.134-12.391-17.818v35.636C32.844 34.134 38 27.17 38 19z" fill="#D80027"/><path d="M0 19c0 8.17 5.156 15.134 12.391 17.818V1.182C5.156 3.866 0 10.83 0 19z" fill="#0052B4"/></g><defs><clipPath id="clip0"><path fill="#fff" d="M0 0h38v38H0z"/></clipPath></defs></symbol><symbol fill="none" id="sprite-instagram-logo" viewBox="0 0 30 31"><title>instagram-logo</title><g clip-path="url(#clip0)"><path d="M10 15.173a5 5 0 115 5 5 5 0 01-5-5zm-2.702 0a7.702 7.702 0 1015.404 0 7.702 7.702 0 00-15.404 0zm13.91-8.008a1.8 1.8 0 101.8-1.8 1.8 1.8 0 00-1.8 1.8zM8.94 27.383c-1.462-.067-2.257-.31-2.786-.517-.7-.272-1.2-.597-1.725-1.122a4.627 4.627 0 01-1.122-1.724c-.206-.528-.45-1.323-.516-2.785-.073-1.581-.087-2.056-.087-6.062s.016-4.48.087-6.062c.067-1.462.312-2.256.516-2.785.273-.7.597-1.2 1.122-1.726a4.623 4.623 0 011.725-1.122c.528-.206 1.324-.45 2.786-.516 1.581-.072 2.056-.087 6.06-.087s4.48.016 6.062.087c1.462.067 2.256.312 2.785.516.7.272 1.2.598 1.726 1.122.525.525.85 1.025 1.122 1.726.206.528.45 1.323.516 2.785.072 1.583.087 2.056.087 6.062s-.015 4.48-.087 6.062c-.067 1.462-.312 2.257-.516 2.785a4.66 4.66 0 01-1.122 1.724 4.66 4.66 0 01-1.726 1.122c-.528.206-1.323.45-2.785.517-1.581.072-2.056.087-6.062.087s-4.48-.015-6.06-.087zM8.816.262C7.219.337 6.128.59 5.175.96a7.357 7.357 0 00-2.657 1.73 7.329 7.329 0 00-1.73 2.658C.417 6.3.164 7.392.09 8.988.017 10.589 0 11.1 0 15.174c0 4.073.017 4.585.09 6.184.074 1.597.327 2.688.698 3.641a7.332 7.332 0 001.73 2.657 7.375 7.375 0 002.657 1.73c.955.371 2.044.624 3.64.697 1.601.073 2.112.09 6.185.09 4.073 0 4.585-.016 6.184-.09 1.597-.073 2.688-.326 3.641-.697a7.376 7.376 0 002.657-1.73 7.348 7.348 0 001.73-2.657c.371-.954.626-2.044.697-3.64.073-1.602.09-2.112.09-6.185 0-4.074-.017-4.585-.09-6.184-.073-1.597-.326-2.688-.697-3.641a7.377 7.377 0 00-1.73-2.657A7.34 7.34 0 0024.826.96c-.954-.371-2.045-.626-3.64-.697C19.585.19 19.074.173 15 .173c-4.073 0-4.585.017-6.185.09z" fill="url(#paint0_radial)"/><path d="M10 15.173a5 5 0 115 5 5 5 0 01-5-5zm-2.702 0a7.702 7.702 0 1015.404 0 7.702 7.702 0 00-15.404 0zm13.91-8.008a1.8 1.8 0 101.8-1.8 1.8 1.8 0 00-1.8 1.8zM8.94 27.383c-1.462-.067-2.257-.31-2.786-.517-.7-.272-1.2-.597-1.725-1.122a4.627 4.627 0 01-1.122-1.724c-.206-.528-.45-1.323-.516-2.785-.073-1.581-.087-2.056-.087-6.062s.016-4.48.087-6.062c.067-1.462.312-2.256.516-2.785.273-.7.597-1.2 1.122-1.726a4.623 4.623 0 011.725-1.122c.528-.206 1.324-.45 2.786-.516 1.581-.072 2.056-.087 6.06-.087s4.48.016 6.062.087c1.462.067 2.256.312 2.785.516.7.272 1.2.598 1.726 1.122.525.525.85 1.025 1.122 1.726.206.528.45 1.323.516 2.785.072 1.583.087 2.056.087 6.062s-.015 4.48-.087 6.062c-.067 1.462-.312 2.257-.516 2.785a4.66 4.66 0 01-1.122 1.724 4.66 4.66 0 01-1.726 1.122c-.528.206-1.323.45-2.785.517-1.581.072-2.056.087-6.062.087s-4.48-.015-6.06-.087zM8.816.262C7.219.337 6.128.59 5.175.96a7.357 7.357 0 00-2.657 1.73 7.329 7.329 0 00-1.73 2.658C.417 6.3.164 7.392.09 8.988.017 10.589 0 11.1 0 15.174c0 4.073.017 4.585.09 6.184.074 1.597.327 2.688.698 3.641a7.332 7.332 0 001.73 2.657 7.375 7.375 0 002.657 1.73c.955.371 2.044.624 3.64.697 1.601.073 2.112.09 6.185.09 4.073 0 4.585-.016 6.184-.09 1.597-.073 2.688-.326 3.641-.697a7.376 7.376 0 002.657-1.73 7.348 7.348 0 001.73-2.657c.371-.954.626-2.044.697-3.64.073-1.602.09-2.112.09-6.185 0-4.074-.017-4.585-.09-6.184-.073-1.597-.326-2.688-.697-3.641a7.377 7.377 0 00-1.73-2.657A7.34 7.34 0 0024.826.96c-.954-.371-2.045-.626-3.64-.697C19.585.19 19.074.173 15 .173c-4.073 0-4.585.017-6.185.09z" fill="url(#paint1_radial)"/></g><defs><radialGradient id="paint0_radial" cx="0" cy="0" r="1" gradientUnits="userSpaceOnUse" gradientTransform="translate(3.986 30.315) scale(39.1625)"><stop offset=".09" stop-color="#FA8F21"/><stop offset=".78" stop-color="#D82D7E"/></radialGradient><radialGradient id="paint1_radial" cx="0" cy="0" r="1" gradientUnits="userSpaceOnUse" gradientTransform="translate(18.194 31.659) scale(30.8654)"><stop offset=".64" stop-color="#8C3AAA" stop-opacity="0"/><stop offset="1" stop-color="#8C3AAA"/></radialGradient><clipPath id="clip0"><path fill="#fff" transform="translate(0 .173)" d="M0 0h30v30H0z"/></clipPath></defs></symbol><symbol fill="none" id="sprite-logo-preload" viewBox="0 0 160 184"><title>logo-preload</title><style>@keyframes logoAnim{0%{transform:rotate(360deg) scale(0)}}</style><defs xmlns="http://www.w3.org/2000/svg"><linearGradient id="a" x1="25%" x2="75%" y1="0%" y2="100%"><stop offset="0%" stop-color="#39AFFD"><animate attributeName="stop-color" dur="1s" repeatCount="indefinite" values="#39AFFD; #3A76FF; #39AFFD"/></stop><stop offset="100%" stop-color="#3A76FF"><animate attributeName="stop-color" dur="1s" repeatCount="indefinite" values="#3A76FF; #39AFFD; #3A76FF"/></stop></linearGradient></defs><g style="transform-origin:50% 50%;animation:logoAnim 1s ease 1 alternate"><path d="M75.14.01L60.118 9.66l15.056 8.094V.046L75.14.01zM51.754 14.968l23.432 12.605.12 56.817L35.33 59.66l.264-34.342 16.162-10.35zM32.853 68.31L0 82.424V99.42l32.781 15.32 38.393-22.727L32.84 68.31h.012zm2.62 54.934l39.87-23.607.109 51.424-23.553 17.335-16.607-9.916.18-35.236zm24.453 49.953l15.622 9.288v-20.712l-15.622 11.424zM23.71 120.12L.024 134.149v-25.115l23.709 11.086h-.024zM5.684 140.856l21.113 12.606.132-25.175L5.744 140.88l-.06-.024zM27.025 30.77L8.111 42.833l18.734 11.58.18-23.691v.048zM.085 47.996l23.792 14.717L.048 72.966v-24.85l.036-.12z" fill="#B3B3B3"/><path d="M84.392 0l.048 66.829 32.048 21.339 43.332-25.79.048-14.018L84.392 0zM160 74.157l-75.416 44.56v64.561l75.332-40.339.084-68.782z" fill="url(#a)"/></g></symbol><symbol fill="none" id="sprite-logo" viewBox="0 0 208 38"><title>logo</title><path fill-rule="evenodd" clip-rule="evenodd" d="M.254 22.974c0 3.21 2.962 5.476 6.783 5.476 4.532 0 6.664-2.883 6.664-5.37 0-3.98-3.911-4.874-6.25-5.422-2.724-.65-4.325-1.221-4.325-3.235 0-1.643 1.065-3.357 3.759-3.357 3.32 0 4.031 2.143 4.088 3.307h2.192c-.06-2.438-1.954-4.974-6.012-4.974-4.532 0-6.218 2.934-6.218 5 0 4.228 4.826 4.402 7.638 5.32.949.3 2.934 1.096 2.934 3.334 0 1.964-1.63 3.728-4.532 3.728-4.086 0-4.473-3.057-4.532-3.809l-2.19.002zm18.235 5.352h2.035v-7.561h4.399c5.142 0 7.01-2.824 7.01-5.624 0-2.143-1.043-5.65-7.01-5.65h-6.434v18.835zm2.035-17.13h4.42c3.629 0 4.95 1.934 4.95 3.945 0 1.96-1.321 3.919-4.95 3.919h-4.42v-7.864zM33.28 28.34h1.722l2.305-6.311h7.407l2.305 6.31h1.722L41.915 9.507H40.15L33.27 28.34h.01zm4.651-8.018l3.102-8.628 3.057 8.627h-6.159zm29.287-5.938c-1.316-3.16-3.973-4.988-7.243-4.988-4.544 0-8.156 3.976-8.156 9.41 0 5.577 3.676 9.503 8.284 9.503 3.083 0 5.713-1.905 7.179-5.085h-1.869c-1.273 2.369-3.398 3.43-5.31 3.43-3.738 0-6.711-3.356-6.711-7.856 0-4.173 2.653-7.754 6.604-7.754 3.378 0 4.929 2.569 5.353 3.333l1.869.007z" fill="#474747"/><path d="M60.103 28.395c-4.77 0-8.367-4.123-8.367-9.59 0-5.411 3.543-9.492 8.239-9.492 3.32 0 5.986 1.836 7.321 5.04l.047.117H65.3l-.024-.043c-.683-1.23-2.274-3.29-5.279-3.29-3.716 0-6.522 3.295-6.522 7.668 0 4.374 2.913 7.773 6.629 7.773 2.134 0 4.096-1.266 5.236-3.387l.024-.046h2.05l-.055.122c-1.502 3.257-4.146 5.128-7.255 5.128zm-.128-18.912c-4.6 0-8.063 4.006-8.063 9.322 0 5.371 3.524 9.421 8.198 9.421 3.003 0 5.564-1.79 7.046-4.919H65.47c-1.186 2.143-3.173 3.433-5.36 3.433-3.811 0-6.794-3.485-6.794-7.935 0-4.45 2.874-7.837 6.687-7.837 3.055 0 4.689 2.067 5.403 3.333h1.69c-1.327-3.064-3.915-4.818-7.121-4.818z" fill="#474747"/><path fill-rule="evenodd" clip-rule="evenodd" d="M71.999 28.364h13.49V26.65h-11.03v-6.959h10.664v-1.714H74.458v-6.83h11.03V9.433H72v18.931z" fill="#474747"/><path fill-rule="evenodd" clip-rule="evenodd" d="M107.632.918l-2.964 1.905 2.971 1.598V.926l-.007-.008zm-4.615 2.953l4.624 2.487.024 11.214-7.89-4.88.052-6.779 3.19-2.042zm-3.73 10.527l-6.485 2.786v3.354l6.47 3.024 7.577-4.486-7.565-4.678h.002zm.516 10.842l7.869-4.66.022 10.15-4.649 3.421-3.277-1.957.035-6.954zm4.827 9.859l3.083 1.833v-4.088l-3.083 2.255zm-7.148-10.476l-4.675 2.77v-4.957l4.68 2.187h-.005zm-3.558 4.093l4.167 2.488.026-4.969-4.18 2.486-.013-.005zm4.212-21.727L94.403 9.37l3.698 2.286.035-4.676v.01zm-5.317 3.4l4.696 2.905-4.703 2.023v-4.904l.007-.024z" fill="#B3B3B3"/><path fill-rule="evenodd" clip-rule="evenodd" d="M109.458.914l.01 13.189 6.325 4.211 8.552-5.09.009-2.766L109.458.914z" fill="url(#paint0_linear)"/><path fill-rule="evenodd" clip-rule="evenodd" d="M124.38 15.55l-14.884 8.795v12.741l14.867-7.96.017-13.576z" fill="url(#paint1_linear)"/><path fill-rule="evenodd" clip-rule="evenodd" d="M146.092 14.556c-1.319-3.157-3.973-4.983-7.243-4.983-4.546 0-8.156 3.97-8.156 9.399 0 5.575 3.674 9.497 8.282 9.497 3.083 0 5.715-1.905 7.178-5.08h-1.868c-1.274 2.366-3.399 3.427-5.31 3.427-3.738 0-6.712-3.354-6.712-7.844 0-4.169 2.656-7.747 6.607-7.747 3.377 0 4.926 2.566 5.353 3.333l1.869-.002zm3.156 13.813h1.725l2.302-6.333h7.409l2.305 6.332h1.722l-6.828-18.895h-1.764l-6.878 18.895h.007zm4.654-8.045l3.099-8.656 3.059 8.656h-6.158zm15.424 8.111h5.806c6.923 0 7.639-3.895 7.639-5.39 0-1.985-1.058-4.152-3.69-4.847 1.114-.619 2.544-1.755 2.544-3.81 0-4.794-4.805-5.027-7.008-5.027h-5.291v19.074zm2.116-1.728v-7.452h3.69c2.089 0 5.492.336 5.492 3.81 0 3.332-3.517 3.635-5.492 3.635l-3.69.007zm0-9.18V11.08h3.175c1.547 0 4.893.076 4.893 3.223 0 2.94-3.119 3.224-4.893 3.224h-3.175z" fill="#275FA1"/><path d="M189.499 9.404h-2.118v18.993h2.118V9.404z" fill="#275FA1"/><path fill-rule="evenodd" clip-rule="evenodd" d="M194.176 28.428h1.681V11.692l10.094 16.736h1.681V9.375h-1.681v15.81l-9.503-15.81h-2.272v19.053z" fill="#275FA1"/><defs><linearGradient id="paint0_linear" x1="123.289" y1=".914" x2="106.193" y2="11.017" gradientUnits="userSpaceOnUse"><stop stop-color="#39AFFD"/><stop offset="1" stop-color="#3A76FF"/></linearGradient><linearGradient id="paint1_linear" x1="123.315" y1="15.55" x2="104.541" y2="24.508" gradientUnits="userSpaceOnUse"><stop stop-color="#39AFFD"/><stop offset="1" stop-color="#3A76FF"/></linearGradient></defs></symbol><symbol fill="none" id="sprite-mail-gray" viewBox="0 0 22 18"><title>mail-gray</title><path d="M18.875.75H3.125A2.628 2.628 0 00.5 3.375v11.25a2.628 2.628 0 002.625 2.625h15.75a2.627 2.627 0 002.625-2.625V3.375A2.627 2.627 0 0018.875.75zm-.665 4.342l-6.75 5.25a.75.75 0 01-.92 0l-6.75-5.25a.75.75 0 11.92-1.184L11 8.8l6.29-4.892a.75.75 0 01.92 1.184z" fill="#BFBFBF"/></symbol><symbol fill="none" id="sprite-mail" viewBox="0 0 22 18"><title>mail</title><path d="M18.875.75H3.125A2.628 2.628 0 00.5 3.375v11.25a2.628 2.628 0 002.625 2.625h15.75a2.627 2.627 0 002.625-2.625V3.375A2.627 2.627 0 0018.875.75zm-.665 4.342l-6.75 5.25a.75.75 0 01-.92 0l-6.75-5.25a.75.75 0 11.92-1.184L11 8.8l6.29-4.892a.75.75 0 01.92 1.184z" fill="#1F1F1F"/></symbol><symbol fill="none" id="sprite-marker" viewBox="0 0 18 22"><title>marker</title><path d="M9 .5A8.26 8.26 0 00.75 8.75a8.167 8.167 0 001.662 4.95s.225.296.262.339L9 21.5l6.33-7.465.258-.335v-.002A8.164 8.164 0 0017.25 8.75 8.26 8.26 0 009 .5zm0 11.25a3 3 0 110-6 3 3 0 010 6z" fill="#BFBFBF"/></symbol><symbol class="ldi-47ibm8" preserveAspectRatio="xMidYMid" style="width:525px;webkit-user-select:none;webkit-transform-origin:262.5px 262.5px;webkit-perspective-origin:262.5px 262.5px;webkit-logical-width:525px;webkit-logical-height:525px;user-select:none;transform-origin:262.5px 262.5px;r:0;perspective-origin:262.5px 262.5px;overflow-y:hidden;overflow-x:hidden;inline-size:525px;height:525px;d:none;block-size:525px;background:0 0/auto padding-box border-box" pointer-events="all" overflow="hidden" display="block" id="sprite-ok" viewBox="0 0 100 100"><title>ok</title><svg version="1.1" id="圖層_1" xmlns="http://www.w3.org/2000/svg" x="0" y="0" viewBox="0 0 100 100" xml:space="preserve" style="x:0;webkit-user-select:none;webkit-transform-origin:50px 50px;webkit-perspective-origin:0 0;user-select:none;transform-origin:50px 50px;r:0;perspective-origin:0 0;overflow-y:hidden;overflow-x:hidden" pointer-events="all" overflow="hidden" display="block"><g style="x:0;webkit-user-select:none;webkit-transform-origin:50px 50px;webkit-perspective-origin:0 0;user-select:none;transform-origin:50px 50px;r:0;perspective-origin:0 0"><g style="x:0;webkit-user-select:none;webkit-transform-origin:50px 50px;webkit-transform:matrix(.7,0,0,.7,0,0);webkit-perspective-origin:0 0;user-select:none;transform-origin:50px 50px;r:0;perspective-origin:0 0"><g style="x:0;webkit-user-select:none;webkit-transform-origin:50px 50px;webkit-perspective-origin:0 0;user-select:none;transform-origin:50px 50px;r:0;perspective-origin:0 0"><g style="webkit-user-select:none;webkit-perspective-origin:0 0;user-select:none;perspective-origin:0 0" transform="scale(.7)"><style/><g style="y:0;x:0;webkit-user-select:none;webkit-transform-origin:50px 50px;webkit-perspective-origin:0 0;webkit-animation-duration:2.2s;webkit-animation-delay:.169231s;webkit-animation:2.2s ease .169231s 1 normal none running none;user-select:none;transform-origin:50px 50px;r:0;perspective-origin:0 0;d:none"><circle cx="50" cy="50" r="40" stroke="#3c3" style="webkit-user-select:none;webkit-perspective-origin:0 0;user-select:none;r:40px;perspective-origin:0 0;cy:50px;cx:50px" stroke-width="8" stroke-miterlimit="10" fill="none"/></g><g style="x:0;webkit-user-select:none;webkit-transform-origin:50px 50px;webkit-perspective-origin:0 0;user-select:none;transform-origin:50px 50px;r:0;perspective-origin:0 0"><g style="webkit-user-select:none;webkit-perspective-origin:0 0;user-select:none;perspective-origin:0 0"><g style="y:0;x:0;webkit-user-select:none;webkit-transform-origin:50px 50px;webkit-perspective-origin:0 0;webkit-animation-duration:2.2s;webkit-animation-delay:.338462s;webkit-animation:2.2s ease .338462s 1 normal none running none;user-select:none;transform-origin:50px 50px;r:0;perspective-origin:0 0;d:none" class="ld"><path fill="#3c3" style="webkit-user-select:none;webkit-perspective-origin:0 0;user-select:none;r:0;perspective-origin:0 0" d="M43.7 69.4L25 47.7l3.9-3.9 14.8 12.6 28.6-25.8 2.7 2.7z"/></g></g></g></g></g></g></g><style>@keyframes ldt-bounce-in{0%{-webkit-transform:scale(0);transform:scale(0)}5%{-webkit-transform:scale(.0846);transform:scale(.0846)}6%{-webkit-transform:scale(.191);transform:scale(.191)}7%{-webkit-transform:scale(.3255);transform:scale(.3255)}8%{-webkit-transform:scale(.4804);transform:scale(.4804)}9%{-webkit-transform:scale(.646);transform:scale(.646)}10%{-webkit-transform:scale(.8116);transform:scale(.8116)}11%{-webkit-transform:scale(.9665);transform:scale(.9665)}12%{-webkit-transform:scale(1.1);transform:scale(1.1)}13%{-webkit-transform:scale(1.2069);transform:scale(1.2069)}14%{-webkit-transform:scale(1.2796);transform:scale(1.2796)}19%{-webkit-transform:scale(1.1558);transform:scale(1.1558)}20%{-webkit-transform:scale(1.07);transform:scale(1.07)}21%{-webkit-transform:scale(.9823);transform:scale(.9823)}22%{-webkit-transform:scale(.901);transform:scale(.901)}23%{-webkit-transform:scale(.8328);transform:scale(.8328)}25%{-webkit-transform:scale(.7551);transform:scale(.7551)}29%{-webkit-transform:scale(.8516);transform:scale(.8516)}31%{-webkit-transform:scale(.973);transform:scale(.973)}33%{-webkit-transform:scale(1.0857);transform:scale(1.0857)}35%{-webkit-transform:scale(1.1538);transform:scale(1.1538)}40%{-webkit-transform:scale(1.0771);transform:scale(1.0771)}42%{-webkit-transform:scale(.9954);transform:scale(.9954)}45%{-webkit-transform:scale(.9057);transform:scale(.9057)}52%{-webkit-transform:scale(.9908);transform:scale(.9908)}56%{-webkit-transform:scale(1.0623);transform:scale(1.0623)}64%{-webkit-transform:scale(.9845);transform:scale(.9845)}}@-webkit-keyframes ldt-bounce-in{0%{-webkit-transform:scale(0);transform:scale(0)}5%{-webkit-transform:scale(.0846);transform:scale(.0846)}6%{-webkit-transform:scale(.191);transform:scale(.191)}7%{-webkit-transform:scale(.3255);transform:scale(.3255)}8%{-webkit-transform:scale(.4804);transform:scale(.4804)}9%{-webkit-transform:scale(.646);transform:scale(.646)}10%{-webkit-transform:scale(.8116);transform:scale(.8116)}11%{-webkit-transform:scale(.9665);transform:scale(.9665)}12%{-webkit-transform:scale(1.1);transform:scale(1.1)}13%{-webkit-transform:scale(1.2069);transform:scale(1.2069)}14%{-webkit-transform:scale(1.2796);transform:scale(1.2796)}19%{-webkit-transform:scale(1.1558);transform:scale(1.1558)}20%{-webkit-transform:scale(1.07);transform:scale(1.07)}21%{-webkit-transform:scale(.9823);transform:scale(.9823)}22%{-webkit-transform:scale(.901);transform:scale(.901)}23%{-webkit-transform:scale(.8328);transform:scale(.8328)}25%{-webkit-transform:scale(.7551);transform:scale(.7551)}29%{-webkit-transform:scale(.8516);transform:scale(.8516)}31%{-webkit-transform:scale(.973);transform:scale(.973)}33%{-webkit-transform:scale(1.0857);transform:scale(1.0857)}35%{-webkit-transform:scale(1.1538);transform:scale(1.1538)}40%{-webkit-transform:scale(1.0771);transform:scale(1.0771)}42%{-webkit-transform:scale(.9954);transform:scale(.9954)}45%{-webkit-transform:scale(.9057);transform:scale(.9057)}52%{-webkit-transform:scale(.9908);transform:scale(.9908)}56%{-webkit-transform:scale(1.0623);transform:scale(1.0623)}64%{-webkit-transform:scale(.9845);transform:scale(.9845)}}</style></svg></symbol><symbol fill="none" id="sprite-phone-gray" viewBox="0 0 24 24"><title>phone-gray</title><path d="M9.814 13.76a13.58 13.58 0 004.934 3.193l2.513-2a.446.446 0 01.506 0l4.667 3.007a1.334 1.334 0 01.22 2.12l-2.186 2.16a2.668 2.668 0 01-2.42.713 23.394 23.394 0 01-11.434-6 22.527 22.527 0 01-6.18-11.22 2.52 2.52 0 01.733-2.367L3.434 1.18a1.333 1.333 0 012.08.213L8.621 6a.42.42 0 010 .5L6.574 8.96c.71 1.82 1.817 3.46 3.24 4.8z" fill="#BFBFBF"/></symbol><symbol fill="none" id="sprite-phone" viewBox="0 0 24 24"><title>phone</title><path d="M10.147 13.76a13.579 13.579 0 004.933 3.193l2.513-2a.447.447 0 01.507 0l4.667 3.007a1.334 1.334 0 01.22 2.12L20.8 22.24a2.667 2.667 0 01-2.42.713 23.393 23.393 0 01-11.433-6 22.526 22.526 0 01-6.18-11.22A2.52 2.52 0 011.5 3.367L3.767 1.18a1.333 1.333 0 012.08.213L8.953 6a.42.42 0 010 .5L6.907 8.96c.71 1.82 1.817 3.46 3.24 4.8z" fill="#1F1F1F"/></symbol><symbol fill="none" id="sprite-point" viewBox="0 0 24 24"><title>point</title><path fill-rule="evenodd" clip-rule="evenodd" d="M4.65 16.8a.75.75 0 01.6-.3H9A.75.75 0 119 18H5.625L2.25 22.5h19.5L18.375 18H15a.75.75 0 110-1.5h3.75a.75.75 0 01.6.3l4.5 6a.75.75 0 01-.6 1.2H.75a.75.75 0 01-.6-1.2l4.5-6z" fill="#BFBFBF"/><path fill-rule="evenodd" clip-rule="evenodd" d="M6 6a6 6 0 116.75 5.953v8.297a.75.75 0 11-1.5 0v-8.295A6 6 0 016 5.998V6z" fill="#BFBFBF"/></symbol><symbol fill="none" id="sprite-quote-mark" viewBox="0 0 16 14"><title>quote-mark</title><path fill-rule="evenodd" clip-rule="evenodd" d="M15.93 2.187c-2.386 1.213-3.58 2.642-3.58 4.282 1.017.121 1.858.551 2.523 1.29.665.74.997 1.595.997 2.566 0 1.033-.322 1.904-.968 2.612-.645.709-1.457 1.063-2.435 1.063-1.095 0-2.043-.46-2.845-1.382-.802-.921-1.203-2.04-1.203-3.356 0-3.947 2.132-7.035 6.395-9.262l1.115 2.187zm-8.42 0C5.104 3.4 3.902 4.829 3.902 6.469c1.036.121 1.887.551 2.552 1.29.665.74.997 1.595.997 2.566 0 1.033-.327 1.904-.983 2.612C5.813 13.646 4.997 14 4.018 14c-1.094 0-2.038-.46-2.83-1.382C.396 11.697 0 10.578 0 9.262 0 5.315 2.122 2.227 6.366 0L7.51 2.187z" fill="#000"/></symbol><symbol fill="none" id="sprite-quotes" viewBox="0 0 16 14"><title>quotes</title><path fill-rule="evenodd" clip-rule="evenodd" d="M15.93 2.187c-2.386 1.213-3.58 2.642-3.58 4.282 1.017.121 1.858.551 2.523 1.29.665.74.997 1.595.997 2.566 0 1.033-.322 1.904-.968 2.612-.645.709-1.457 1.063-2.435 1.063-1.095 0-2.043-.46-2.845-1.382-.802-.921-1.203-2.04-1.203-3.356 0-3.947 2.132-7.035 6.395-9.262l1.115 2.187zm-8.42 0C5.104 3.4 3.902 4.829 3.902 6.469c1.036.121 1.887.551 2.552 1.29.665.74.997 1.595.997 2.566 0 1.033-.327 1.904-.983 2.612C5.813 13.646 4.997 14 4.018 14c-1.094 0-2.038-.46-2.83-1.382C.396 11.697 0 10.578 0 9.262 0 5.315 2.122 2.227 6.366 0L7.51 2.187z" fill="#275FA1"/></symbol><symbol fill="none" id="sprite-ru" viewBox="0 0 38 38"><title>ru</title><path d="M19 38c10.493 0 19-8.507 19-19S29.493 0 19 0 0 8.507 0 19s8.507 19 19 19z" fill="#F0F0F0"/><path d="M36.818 25.609A18.957 18.957 0 0038 19c0-2.324-.418-4.55-1.182-6.609H1.182A18.96 18.96 0 000 19c0 2.324.418 4.55 1.182 6.609L19 27.26l17.818-1.652z" fill="#0052B4"/><path d="M19 38c8.17 0 15.134-5.156 17.818-12.391H1.182C3.866 32.844 10.83 38 19 38z" fill="#D80027"/></symbol><symbol fill="none" id="sprite-shape" viewBox="0 0 1684 1664"><title>shape</title><g filter="url(#filter0_f)"><path fill-rule="evenodd" clip-rule="evenodd" d="M1277.81 879.163c6.42 91.518 21.4 199.907-43.22 264.987-64.48 64.93-174.99 23.3-264.004 44.4-78.172 18.53-146.927 93.79-224.053 71.29-77.309-22.54-97.143-121.18-151.338-180.78-64.164-70.56-187.317-104.784-194.804-199.897-7.409-94.122 92.095-160.133 161.421-224.171 57.244-52.876 131.528-72.341 199.944-109.624 89.801-48.937 163.14-164.299 263.094-142.705 98.29 21.236 127.21 148.356 174.38 237.222 40.35 76.002 72.56 153.427 78.58 239.278z" fill="url(#paint0_angular)" fill-opacity=".25"/></g><defs><radialGradient id="paint0_angular" cx="0" cy="0" r="1" gradientUnits="userSpaceOnUse" gradientTransform="matrix(-340.711 0 0 -381.78 943.288 882.222)"><stop offset=".504" stop-color="#00CF85"/><stop offset="1" stop-color="#0078CF"/></radialGradient><filter id="filter0_f" x="0" y="0" width="1684" height="1664" filterUnits="userSpaceOnUse" color-interpolation-filters="sRGB"><feFlood flood-opacity="0" result="BackgroundImageFix"/><feBlend in="SourceGraphic" in2="BackgroundImageFix" result="shape"/><feGaussianBlur stdDeviation="200" result="effect1_foregroundBlur"/></filter></defs></symbol><symbol fill="none" id="sprite-shape2" viewBox="0 0 2590 790"><title>shape2</title><g filter="url(#filter0_f)"><path fill-rule="evenodd" clip-rule="evenodd" d="M210.087 218.884c14.976-19.834 43.195-23.772 63.029-8.797 282.557 213.347 456.995 282.812 580.817 288.609 118.109 5.529 197.447-45.915 297.017-110.473l8.21-5.324c102.92-66.673 222.89-140.795 411.4-143.084 186.3-2.262 433.67 65.498 795.15 264.599 21.77 11.99 29.7 39.358 17.71 61.127-11.99 21.769-39.36 29.696-61.13 17.706-355.52-195.814-586.77-255.428-750.63-253.439-161.65 1.963-263.37 63.716-363.57 128.627-4.52 2.93-9.05 5.877-13.6 8.833-95.61 62.172-197.214 128.237-344.766 121.329-152.085-7.12-344.897-90.78-630.84-306.684-19.834-14.976-23.772-43.195-8.797-63.029z" fill="url(#paint0_angular)" fill-opacity=".25"/></g><defs><radialGradient id="paint0_angular" cx="0" cy="0" r="1" gradientUnits="userSpaceOnUse" gradientTransform="matrix(0 168.043 -927.053 0 1416.95 414.044)"><stop offset=".504" stop-color="#00CF85"/><stop offset="1" stop-color="#0078CF"/></radialGradient><filter id="filter0_f" x=".998" y=".998" width="2588.01" height="788.098" filterUnits="userSpaceOnUse" color-interpolation-filters="sRGB"><feFlood flood-opacity="0" result="BackgroundImageFix"/><feBlend in="SourceGraphic" in2="BackgroundImageFix" result="shape"/><feGaussianBlur stdDeviation="100" result="effect1_foregroundBlur"/></filter></defs></symbol><symbol fill="none" id="sprite-share" viewBox="0 0 19 21"><title>share</title><path d="M16 14.25a2.99 2.99 0 00-2.162.923L6.901 11.27a2.993 2.993 0 000-1.54l6.937-3.903a2.99 2.99 0 10-.737-1.307L6.163 8.423a3 3 0 100 4.154l6.938 3.903a3 3 0 102.9-2.23z" fill="#1F1F1F"/></symbol><symbol id="sprite-to-top" viewBox="0 0 1024 1024"><title/><path d="M1005.298 735.971c-29.441 36.801-83.14 42.767-119.941 13.327L511.999 450.612 138.645 749.298c-36.804 29.441-90.504 23.474-119.944-13.327S-4.774 645.47 32.03 616.03l426.662-341.332c31.165-24.932 75.449-24.932 106.614 0L991.97 616.03c36.801 29.441 42.767 83.141 13.327 119.941z"/></symbol><symbol fill="none" id="sprite-tr" viewBox="0 0 38 38"><title>tr</title><path d="M19 38c10.493 0 19-8.507 19-19S29.493 0 19 0 0 8.507 0 19s8.507 19 19 19z" fill="#D80027"/><path d="M18.222 15.525l1.559 2.149 2.525-.819-1.562 2.147 1.559 2.148-2.524-.822-1.561 2.146.002-2.654-2.524-.822 2.524-.818.002-2.655z" fill="#F0F0F0"/><path d="M13.967 24.37a5.37 5.37 0 112.555-10.094 6.609 6.609 0 100 9.448c-.76.412-1.63.646-2.554.646z" fill="#F0F0F0"/></symbol><symbol fill="none" id="sprite-ua" viewBox="0 0 38 39"><title>ua</title><g clip-path="url(#clip0)"><path d="M19 38.5c10.493 0 19-8.507 19-19S29.493.5 19 .5 0 9.007 0 19.5s8.507 19 19 19z" fill="#FFDA44"/><path d="M0 19.5C0 9.007 8.507.5 19 .5s19 8.507 19 19" fill="#338AF3"/></g><defs><clipPath id="clip0"><path fill="#fff" transform="translate(0 .5)" d="M0 0h38v38H0z"/></clipPath></defs></symbol><symbol fill="none" id="sprite-us" viewBox="0 0 38 38"><title>us</title><g clip-path="url(#clip0)"><path d="M19 38c10.493 0 19-8.507 19-19S29.493 0 19 0 0 8.507 0 19s8.507 19 19 19z" fill="#F0F0F0"/><path d="M18.174 19H38c0-1.715-.229-3.376-.654-4.956H18.174V19zm0-9.913h17.037a19.1 19.1 0 00-4.384-4.956H18.174v4.956zM19 38c4.472 0 8.582-1.545 11.827-4.13H7.173A18.919 18.919 0 0019 38zM2.789 28.913H35.21a18.886 18.886 0 002.135-4.956H.654a18.887 18.887 0 002.134 4.956z" fill="#D80027"/><path d="M8.801 2.967h1.732l-1.61 1.17.614 1.893-1.61-1.17-1.61 1.17.53-1.635a19.105 19.105 0 00-3.684 4.107h.554l-1.025.745c-.16.266-.313.537-.46.812l.49 1.506-.913-.663c-.227.48-.435.973-.622 1.475l.54 1.66h1.99l-1.61 1.17.615 1.893-1.61-1.17-.965.7A19.181 19.181 0 000 19h19V0A18.91 18.91 0 008.801 2.967zM9.537 17.1l-1.61-1.17-1.61 1.17.615-1.893-1.611-1.17h1.99l.616-1.894.615 1.894h1.99l-1.61 1.17.615 1.893zm-.615-7.428l.615 1.893-1.61-1.17-1.61 1.17.615-1.893-1.611-1.17h1.99l.616-1.893.615 1.893h1.99l-1.61 1.17zm7.43 7.428l-1.61-1.17-1.61 1.17.615-1.893-1.61-1.17h1.99l.615-1.894.615 1.894h1.99l-1.61 1.17.615 1.893zm-.615-7.428l.615 1.893-1.61-1.17-1.61 1.17.615-1.893-1.61-1.17h1.99l.615-1.893.615 1.893h1.99l-1.61 1.17zm0-5.535l.615 1.893-1.61-1.17-1.61 1.17.615-1.893-1.61-1.17h1.99l.615-1.893.615 1.893h1.99l-1.61 1.17z" fill="#0052B4"/></g><defs><clipPath id="clip0"><path fill="#fff" d="M0 0h38v38H0z"/></clipPath></defs></symbol><symbol fill="none" id="sprite-user" viewBox="0 0 24 24"><title>user</title><path d="M16.5 9a4.5 4.5 0 11-9 0 4.5 4.5 0 019 0z" fill="#BFBFBF"/><path fill-rule="evenodd" clip-rule="evenodd" d="M0 12a12 12 0 1124 0 12 12 0 01-24 0zM12 1.5a10.5 10.5 0 00-8.202 17.055C4.863 16.839 7.208 15 12 15c4.793 0 7.136 1.837 8.202 3.555A10.5 10.5 0 0012 1.5z" fill="#BFBFBF"/></symbol><symbol fill="none" id="sprite-web" viewBox="0 0 22 22"><title>web</title><path d="M11 21c5.523 0 10-4.477 10-10S16.523 1 11 1 1 5.477 1 11s4.477 10 10 10z" stroke="#BFBFBF" stroke-width="2" stroke-linecap="round" stroke-linejoin="round"/><path d="M7 11c0 5.523 1.79 10 4 10s4-4.477 4-10-1.79-10-4-10-4 4.477-4 10zm-6 0h20" stroke="#BFBFBF" stroke-width="2" stroke-linecap="round" stroke-linejoin="round"/></symbol><symbol fill="none" id="sprite-youtube-logo" viewBox="0 0 39 27"><title>youtube-logo</title><path d="M15.92 26.963c-7.32-.134-9.821-.256-11.358-.572-1.04-.21-1.943-.678-2.606-1.355-.512-.513-.92-1.295-1.235-2.38C.45 21.75.344 20.998.194 19.16c-.23-4.148-.285-7.54 0-11.328.235-2.093.35-4.577 1.913-6.026A5.128 5.128 0 014.667.512C6.175.226 12.592 0 19.235 0c6.628 0 13.06.226 14.567.512 1.205.226 2.334.904 2.997 1.777 1.427 2.244 1.452 5.034 1.597 7.216.06 1.04.06 6.944 0 7.984-.226 3.449-.407 4.67-.919 5.934-.317.799-.587 1.22-1.055 1.688a5.053 5.053 0 01-2.681 1.37c-6.335.477-11.715.58-17.82.482zm9.701-13.858c-3.524-1.883-6.9-3.63-10.349-5.438v10.816c3.63-1.973 7.457-3.781 10.364-5.393l-.015.015z" fill="#CD201F"/></symbol></svg>