<svg xmlns="http://www.w3.org/2000/svg" xmlns:xlink="http://www.w3.org/1999/xlink"><symbol fill="none" id="sprite-arrow" viewBox="0 0 36 36"><title>arrow</title><path d="M5.371 17.646h25.758M21.513 7c1.373 8.243 9.616 10.647 9.616 10.647m-9.616 10.647c1.373-8.243 9.616-10.647 9.616-10.647" stroke="#fff" stroke-width="2" stroke-linecap="round" stroke-linejoin="round"/></symbol><symbol fill="none" id="sprite-check" viewBox="0 0 90 90"><title>check</title><defs><linearGradient id="c" x1="1" x2="0" y1="0" y2="1"><stop stop-color="#FFF" offset="0%"/><stop stop-color="rgba(255, 255, 255, 0.2)" offset="100%"/></linearGradient><linearGradient id="a" x1=".89" y1=".1" x2=".1" y2=".89"><stop stop-color="rgba(255, 255, 255, 0.59)" offset="0%"/><stop stop-color="rgba(255, 255, 255, 0)" offset="100%"/></linearGradient><filter id="d"/><filter id="b" x="-20%" y="-20%" width="140%" height="140%"><feGaussianBlur stdDeviation="3 3" x="0%" y="0%" in="SourceGraphic" result="blur"/><feMerge x="0%" y="0%" result="merge"><feMergeNode in="SourceGraphic"/><feMergeNode in="blur"/></feMerge></filter></defs><circle cx="45" cy="45" r="31.5" fill="#BC94FF"/><circle cx="45" cy="45" r="45" fill="url(#a)" filter="url(#b)"/><circle cx="45" cy="45" r="31.5" fill="rgba(186, 144, 255, 0.35)"/><path d="M58.368 34.039a3.615 3.615 0 01.072 5.185L43.875 53.89A3.78 3.78 0 0141.193 55a3.78 3.78 0 01-2.681-1.11l-6.952-7a3.615 3.615 0 01.072-5.184 3.796 3.796 0 015.292.07l4.27 4.3L53.075 34.11a3.796 3.796 0 015.292-.071z" fill="url(#c)" filter="url(#d)"/></symbol><symbol fill="none" id="sprite-chevron-down" viewBox="0 0 12 8"><title>chevron-down</title><path d="M1.378 1.5l4.5 5 4.5-5" stroke="#1F1F1F" stroke-width="1.5" stroke-linecap="round" stroke-linejoin="round"/></symbol><symbol fill="none" id="sprite-comments-small" viewBox="0 0 340 244"><title>comments-small</title><path fill-rule="evenodd" clip-rule="evenodd" d="M340 0H14v244h326V0zM13.5 114.412L0 122.206 13.5 130v-15.588z" fill="#000"/></symbol><symbol fill="none" id="sprite-comments" viewBox="0 0 451 244"><title>comments</title><path fill-rule="evenodd" clip-rule="evenodd" d="M437 0H0v244h437V129.588l13.5-7.794L437 114V0z" fill="#000"/></symbol><symbol fill="none" id="sprite-de" viewBox="0 0 38 38"><title>de</title><path d="M1.182 25.609C3.866 32.844 10.83 38 19 38c8.17 0 15.134-5.156 17.818-12.391L19 23.957 1.182 25.609z" fill="#FFDA44"/><path d="M19 0C10.83 0 3.866 5.156 1.182 12.391L19 14.043l17.818-1.652C34.134 5.156 27.17 0 19 0z" fill="#000"/><path d="M1.182 12.391A18.96 18.96 0 000 19c0 2.324.418 4.55 1.182 6.609h35.636A18.96 18.96 0 0038 19c0-2.324-.418-4.55-1.182-6.609H1.182z" fill="#D80027"/></symbol><symbol fill="none" id="sprite-es" viewBox="0 0 38 38"><title>es</title><path d="M0 19c0 2.324.418 4.55 1.182 6.609L19 27.26l17.818-1.652A18.96 18.96 0 0038 19c0-2.324-.418-4.55-1.182-6.609L19 10.74 1.182 12.391A18.96 18.96 0 000 19z" fill="#FFDA44"/><path d="M36.818 12.391C34.134 5.156 27.17 0 19 0 10.83 0 3.866 5.156 1.182 12.391h35.636zM1.182 25.609C3.866 32.844 10.83 38 19 38c8.17 0 15.134-5.156 17.818-12.391H1.182z" fill="#D80027"/></symbol><symbol fill="none" id="sprite-eye" viewBox="0 0 90 90"><title>eye</title><g filter="url(#filter0_b)"><circle cx="45.5" cy="44.5" r="26.5" fill="url(#paint0_linear)"/><circle cx="45.5" cy="44.5" r="27" stroke="url(#paint1_linear)" stroke-linecap="round" stroke-linejoin="round"/></g><g filter="url(#filter1_b)"><g filter="url(#filter2_b)"><rect width="90" height="90" rx="45" fill="#fff" fill-opacity=".05"/><rect width="90" height="90" rx="45" fill="url(#paint2_linear)"/></g></g><path d="M38.91 58.745c-.435 0-.863-.115-1.24-.331-.851-.482-1.38-1.418-1.38-2.433V35.426c0-1.019.529-1.952 1.38-2.434a2.488 2.488 0 012.535.032L57.773 43.54a2.55 2.55 0 010 4.324l-17.57 10.518c-.39.236-.837.361-1.293.363z" fill="#fff"/><g filter="url(#filter3_b)"><circle cx="45.5" cy="44.5" r="31.5" fill="#FFCBB9" fill-opacity=".35"/></g><defs><filter id="filter0_b" x="-6" y="-7" width="103" height="103" filterUnits="userSpaceOnUse" color-interpolation-filters="sRGB"><feFlood flood-opacity="0" result="BackgroundImageFix"/><feGaussianBlur in="BackgroundImage" stdDeviation="12"/><feComposite in2="SourceAlpha" operator="in" result="effect1_backgroundBlur"/><feBlend in="SourceGraphic" in2="effect1_backgroundBlur" result="shape"/></filter><filter id="filter1_b" x="-25" y="-25" width="140" height="140" filterUnits="userSpaceOnUse" color-interpolation-filters="sRGB"><feFlood flood-opacity="0" result="BackgroundImageFix"/><feGaussianBlur in="BackgroundImage" stdDeviation="12.5"/><feComposite in2="SourceAlpha" operator="in" result="effect1_backgroundBlur"/><feBlend in="SourceGraphic" in2="effect1_backgroundBlur" result="shape"/></filter><filter id="filter2_b" x="-25" y="-25" width="140" height="140" filterUnits="userSpaceOnUse" color-interpolation-filters="sRGB"><feFlood flood-opacity="0" result="BackgroundImageFix"/><feGaussianBlur in="BackgroundImage" stdDeviation="12.5"/><feComposite in2="SourceAlpha" operator="in" result="effect1_backgroundBlur"/><feBlend in="SourceGraphic" in2="effect1_backgroundBlur" result="shape"/></filter><filter id="filter3_b" x="-10" y="-11" width="111" height="111" filterUnits="userSpaceOnUse" color-interpolation-filters="sRGB"><feFlood flood-opacity="0" result="BackgroundImageFix"/><feGaussianBlur in="BackgroundImage" stdDeviation="12"/><feComposite in2="SourceAlpha" operator="in" result="effect1_backgroundBlur"/><feBlend in="SourceGraphic" in2="effect1_backgroundBlur" result="shape"/></filter><filter id="filter4_bd" x="14" y="19" width="63" height="52" filterUnits="userSpaceOnUse" color-interpolation-filters="sRGB"><feFlood flood-opacity="0" result="BackgroundImageFix"/><feGaussianBlur in="BackgroundImage" stdDeviation="7.5"/><feComposite in2="SourceAlpha" operator="in" result="effect1_backgroundBlur"/><feColorMatrix in="SourceAlpha" values="0 0 0 0 0 0 0 0 0 0 0 0 0 0 0 0 0 0 127 0"/><feOffset dx="5" dy="5"/><feGaussianBlur stdDeviation="5"/><feColorMatrix values="0 0 0 0 1 0 0 0 0 0.52549 0 0 0 0 0.137255 0 0 0 0.5 0"/><feBlend in2="effect1_backgroundBlur" result="effect2_dropShadow"/><feBlend in="SourceGraphic" in2="effect2_dropShadow" result="shape"/></filter><linearGradient id="paint0_linear" x1="45.5" y1="18" x2="45.5" y2="71" gradientUnits="userSpaceOnUse"><stop stop-color="#FFB37F"/><stop offset="1" stop-color="#FF7B0D"/></linearGradient><linearGradient id="paint1_linear" x1="27.437" y1="24.175" x2="61.245" y2="66.047" gradientUnits="userSpaceOnUse"><stop stop-color="#fff" stop-opacity=".25"/><stop offset="1" stop-color="#fff" stop-opacity="0"/></linearGradient><linearGradient id="paint2_linear" x1="66.411" y1="5.444" x2="45" y2="90" gradientUnits="userSpaceOnUse"><stop stop-color="#fff" stop-opacity=".59"/><stop offset="1" stop-color="#fff" stop-opacity="0"/></linearGradient><linearGradient id="paint3_linear" x1="59.66" y1="37.973" x2="22.95" y2="39.768" gradientUnits="userSpaceOnUse"><stop stop-color="#fff"/><stop offset="1" stop-color="#fff" stop-opacity=".2"/></linearGradient></defs></symbol><symbol fill="none" id="sprite-facebook-logo" viewBox="0 0 30 31"><title>facebook-logo</title><g clip-path="url(#clip0)"><path d="M30 15.173c0-8.284-6.716-15-15-15-8.284 0-15 6.716-15 15 0 7.486 5.484 13.692 12.656 14.818V19.51h-3.81v-4.337h3.81v-3.306c0-3.759 2.24-5.836 5.666-5.836 1.641 0 3.358.293 3.358.293v3.691h-1.892c-1.862 0-2.444 1.156-2.444 2.344v2.814h4.16l-.665 4.337h-3.495v10.48C24.515 28.867 30 22.661 30 15.173z" fill="#1977F3"/><path d="M20.839 19.51l.664-4.338h-4.16v-2.814c0-1.185.58-2.343 2.445-2.343h1.892V6.323s-1.717-.293-3.358-.293c-3.425 0-5.665 2.076-5.665 5.837v3.305h-3.81v4.337h3.81v10.482a15.312 15.312 0 004.687 0V19.509h3.495z" fill="#FEFEFE"/></g><defs><clipPath id="clip0"><path fill="#fff" transform="translate(0 .173)" d="M0 0h30v30H0z"/></clipPath></defs></symbol><symbol fill="none" id="sprite-flash" viewBox="0 0 89 89"><title>flash</title><rect width="89" height="89" rx="44.5" fill="#DDECE2"/><g filter="url(#filter0_b)"><circle cx="44.5" cy="44.5" r="31.5" fill="url(#paint0_linear)"/></g><g filter="url(#filter1_bdd)"><path d="M39.133 64a1.464 1.464 0 01-1.12-.532 1.503 1.503 0 01-.32-1.217v-.01l2.237-12.54h-8.657c-.24 0-.476-.07-.68-.2a1.291 1.291 0 01-.469-.54 1.324 1.324 0 01.159-1.377L47.717 25.57c.199-.257.474-.44.785-.523.31-.082.638-.058.934.068.296.126.543.348.704.631.16.284.226.613.186.938 0 .025-.006.048-.01.073l-2.244 12.544h8.655a1.267 1.267 0 011.149.74 1.324 1.324 0 01-.159 1.377L40.28 63.43c-.137.177-.31.32-.51.419-.198.098-.416.15-.637.15z" fill="url(#paint1_linear)"/></g><defs><linearGradient id="paint0_linear" x1="76" y1="13" x2="31.579" y2="64.952" gradientUnits="userSpaceOnUse"><stop stop-color="#9BF763"/><stop offset="1" stop-color="#26AB5B"/></linearGradient><linearGradient id="paint1_linear" x1="56.015" y1="32.043" x2="24.809" y2="32.773" gradientUnits="userSpaceOnUse"><stop stop-color="#fff"/><stop offset="1" stop-color="#fff" stop-opacity=".2"/></linearGradient><filter id="filter0_b" x="-11" y="-11" width="111" height="111" filterUnits="userSpaceOnUse" color-interpolation-filters="sRGB"><feFlood flood-opacity="0" result="BackgroundImageFix"/><feGaussianBlur in="BackgroundImage" stdDeviation="12"/><feComposite in2="SourceAlpha" operator="in" result="effect1_backgroundBlur"/><feBlend in="SourceGraphic" in2="effect1_backgroundBlur" result="shape"/></filter><filter id="filter1_bdd" x="15" y="10" width="58" height="69" filterUnits="userSpaceOnUse" color-interpolation-filters="sRGB"><feFlood flood-opacity="0" result="BackgroundImageFix"/><feGaussianBlur in="BackgroundImage" stdDeviation="7.5"/><feComposite in2="SourceAlpha" operator="in" result="effect1_backgroundBlur"/><feColorMatrix in="SourceAlpha" values="0 0 0 0 0 0 0 0 0 0 0 0 0 0 0 0 0 0 127 0"/><feOffset dx="5" dy="5"/><feGaussianBlur stdDeviation="5"/><feColorMatrix values="0 0 0 0 0.15375 0 0 0 0 0.522433 0 0 0 0 0.9 0 0 0 0.5 0"/><feBlend in2="effect1_backgroundBlur" result="effect2_dropShadow"/><feColorMatrix in="SourceAlpha" values="0 0 0 0 0 0 0 0 0 0 0 0 0 0 0 0 0 0 127 0"/><feOffset dx="5" dy="5"/><feGaussianBlur stdDeviation="5"/><feColorMatrix values="0 0 0 0 0.454902 0 0 0 0 0.870588 0 0 0 0 0.376471 0 0 0 0.5 0"/><feBlend in2="effect2_dropShadow" result="effect3_dropShadow"/><feBlend in="SourceGraphic" in2="effect3_dropShadow" result="shape"/></filter></defs></symbol><symbol fill="none" id="sprite-fr" viewBox="0 0 38 38"><title>fr</title><g clip-path="url(#clip0)"><path d="M19 38c10.493 0 19-8.507 19-19S29.493 0 19 0 0 8.507 0 19s8.507 19 19 19z" fill="#F0F0F0"/><path d="M38 19c0-8.17-5.156-15.134-12.391-17.818v35.636C32.844 34.134 38 27.17 38 19z" fill="#D80027"/><path d="M0 19c0 8.17 5.156 15.134 12.391 17.818V1.182C5.156 3.866 0 10.83 0 19z" fill="#0052B4"/></g><defs><clipPath id="clip0"><path fill="#fff" d="M0 0h38v38H0z"/></clipPath></defs></symbol><symbol fill="none" id="sprite-gear" viewBox="0 0 89 89"><title>gear</title><rect width="89" height="89" rx="44.5" fill="#F4E6DB"/><g filter="url(#filter0_b)"><circle cx="44.5" cy="44.5" r="31.5" fill="url(#paint0_linear)"/><circle cx="44.5" cy="44.5" r="32" stroke="url(#paint1_linear)" stroke-linecap="round" stroke-linejoin="round"/></g><defs><linearGradient id="paint0_linear" x1="44.5" y1="13" x2="44.5" y2="76" gradientUnits="userSpaceOnUse"><stop stop-color="#FFB37F"/><stop offset="1" stop-color="#FF7B0D"/></linearGradient><linearGradient id="paint1_linear" x1="23.029" y1="20.34" x2="63.216" y2="70.112" gradientUnits="userSpaceOnUse"><stop stop-color="#fff" stop-opacity=".25"/><stop offset="1" stop-color="#fff" stop-opacity="0"/></linearGradient><linearGradient id="paint2_linear" x1="56.944" y1="35.417" x2="24.638" y2="36.436" gradientUnits="userSpaceOnUse"><stop stop-color="#fff"/><stop offset="1" stop-color="#fff" stop-opacity=".2"/></linearGradient><filter id="filter0_b" x="-12" y="-12" width="113" height="113" filterUnits="userSpaceOnUse" color-interpolation-filters="sRGB"><feFlood flood-opacity="0" result="BackgroundImageFix"/><feGaussianBlur in="BackgroundImage" stdDeviation="12"/><feComposite in2="SourceAlpha" operator="in" result="effect1_backgroundBlur"/><feBlend in="SourceGraphic" in2="effect1_backgroundBlur" result="shape"/></filter><filter id="filter1_bd" x="15" y="15" width="59" height="60" filterUnits="userSpaceOnUse" color-interpolation-filters="sRGB"><feFlood flood-opacity="0" result="BackgroundImageFix"/><feGaussianBlur in="BackgroundImage" stdDeviation="7.5"/><feComposite in2="SourceAlpha" operator="in" result="effect1_backgroundBlur"/><feColorMatrix in="SourceAlpha" values="0 0 0 0 0 0 0 0 0 0 0 0 0 0 0 0 0 0 127 0"/><feOffset dx="5" dy="5"/><feGaussianBlur stdDeviation="5"/><feColorMatrix values="0 0 0 0 1 0 0 0 0 0.52549 0 0 0 0 0.137255 0 0 0 0.5 0"/><feBlend in2="effect1_backgroundBlur" result="effect2_dropShadow"/><feBlend in="SourceGraphic" in2="effect2_dropShadow" result="shape"/></filter></defs></symbol><symbol fill="none" id="sprite-heart" viewBox="0 0 90 90"><title>heart</title><g filter="url(#filter0_b)"><circle cx="45.5" cy="44.5" r="31.5" fill="url(#paint0_linear)"/><circle cx="45.5" cy="44.5" r="32" stroke="url(#paint1_linear)" stroke-linecap="round" stroke-linejoin="round"/></g><g filter="url(#filter1_b)"><g filter="url(#filter2_b)"><rect width="90" height="90" rx="45" fill="#fff" fill-opacity=".05"/><rect width="90" height="90" rx="45" fill="url(#paint2_linear)"/></g></g><path d="M38.91 58.745c-.435 0-.863-.115-1.24-.331-.851-.482-1.38-1.418-1.38-2.433V35.426c0-1.019.529-1.952 1.38-2.434a2.49 2.49 0 012.535.032L57.773 43.54a2.552 2.552 0 010 4.324l-17.57 10.518c-.39.236-.837.361-1.293.363z" fill="#fff"/><g filter="url(#filter3_b)"><circle cx="45.5" cy="44.5" r="31.5" fill="#FF749F" fill-opacity=".35"/></g><defs><filter id="filter0_b" x="-11" y="-12" width="113" height="113" filterUnits="userSpaceOnUse" color-interpolation-filters="sRGB"><feFlood flood-opacity="0" result="BackgroundImageFix"/><feGaussianBlur in="BackgroundImage" stdDeviation="12"/><feComposite in2="SourceAlpha" operator="in" result="effect1_backgroundBlur"/><feBlend in="SourceGraphic" in2="effect1_backgroundBlur" result="shape"/></filter><filter id="filter1_b" x="-25" y="-25" width="140" height="140" filterUnits="userSpaceOnUse" color-interpolation-filters="sRGB"><feFlood flood-opacity="0" result="BackgroundImageFix"/><feGaussianBlur in="BackgroundImage" stdDeviation="12.5"/><feComposite in2="SourceAlpha" operator="in" result="effect1_backgroundBlur"/><feBlend in="SourceGraphic" in2="effect1_backgroundBlur" result="shape"/></filter><filter id="filter2_b" x="-25" y="-25" width="140" height="140" filterUnits="userSpaceOnUse" color-interpolation-filters="sRGB"><feFlood flood-opacity="0" result="BackgroundImageFix"/><feGaussianBlur in="BackgroundImage" stdDeviation="12.5"/><feComposite in2="SourceAlpha" operator="in" result="effect1_backgroundBlur"/><feBlend in="SourceGraphic" in2="effect1_backgroundBlur" result="shape"/></filter><filter id="filter3_b" x="-10" y="-11" width="111" height="111" filterUnits="userSpaceOnUse" color-interpolation-filters="sRGB"><feFlood flood-opacity="0" result="BackgroundImageFix"/><feGaussianBlur in="BackgroundImage" stdDeviation="12"/><feComposite in2="SourceAlpha" operator="in" result="effect1_backgroundBlur"/><feBlend in="SourceGraphic" in2="effect1_backgroundBlur" result="shape"/></filter><filter id="filter4_bd" x="13" y="14" width="65" height="62" filterUnits="userSpaceOnUse" color-interpolation-filters="sRGB"><feFlood flood-opacity="0" result="BackgroundImageFix"/><feGaussianBlur in="BackgroundImage" stdDeviation="7.5"/><feComposite in2="SourceAlpha" operator="in" result="effect1_backgroundBlur"/><feColorMatrix in="SourceAlpha" values="0 0 0 0 0 0 0 0 0 0 0 0 0 0 0 0 0 0 127 0"/><feOffset dx="5" dy="5"/><feGaussianBlur stdDeviation="5"/><feColorMatrix values="0 0 0 0 1 0 0 0 0 0.321569 0 0 0 0 0.54902 0 0 0 0.5 0"/><feBlend in2="effect1_backgroundBlur" result="effect2_dropShadow"/><feBlend in="SourceGraphic" in2="effect2_dropShadow" result="shape"/></filter><linearGradient id="paint0_linear" x1="50.138" y1="48.719" x2="-5.219" y2="75.635" gradientUnits="userSpaceOnUse"><stop stop-color="#FF759F"/><stop offset="1" stop-color="#FF196E"/></linearGradient><linearGradient id="paint1_linear" x1="24.029" y1="20.34" x2="64.216" y2="70.112" gradientUnits="userSpaceOnUse"><stop stop-color="#fff" stop-opacity=".25"/><stop offset="1" stop-color="#fff" stop-opacity="0"/></linearGradient><linearGradient id="paint2_linear" x1="66.411" y1="5.444" x2="45" y2="90" gradientUnits="userSpaceOnUse"><stop stop-color="#fff" stop-opacity=".59"/><stop offset="1" stop-color="#fff" stop-opacity="0"/></linearGradient><linearGradient id="paint3_linear" x1="56.643" y1="38.186" x2="27.732" y2="39.333" gradientUnits="userSpaceOnUse"><stop stop-color="#fff"/><stop offset="1" stop-color="#fff" stop-opacity=".2"/></linearGradient></defs></symbol><symbol fill="none" id="sprite-instagram-logo" viewBox="0 0 30 31"><title>instagram-logo</title><g clip-path="url(#clip0)"><path d="M10 15.173a5 5 0 115 5 5 5 0 01-5-5zm-2.702 0a7.702 7.702 0 1015.404 0 7.702 7.702 0 00-15.404 0zm13.91-8.008a1.8 1.8 0 101.8-1.8 1.8 1.8 0 00-1.8 1.8zM8.94 27.383c-1.462-.067-2.257-.31-2.786-.517-.7-.272-1.2-.597-1.725-1.122a4.627 4.627 0 01-1.122-1.724c-.206-.528-.45-1.323-.516-2.785-.073-1.581-.087-2.056-.087-6.062s.016-4.48.087-6.062c.067-1.462.312-2.256.516-2.785.273-.7.597-1.2 1.122-1.726a4.623 4.623 0 011.725-1.122c.528-.206 1.324-.45 2.786-.516 1.581-.072 2.056-.087 6.06-.087s4.48.016 6.062.087c1.462.067 2.256.312 2.785.516.7.272 1.2.598 1.726 1.122.525.525.85 1.025 1.122 1.726.206.528.45 1.323.516 2.785.072 1.583.087 2.056.087 6.062s-.015 4.48-.087 6.062c-.067 1.462-.312 2.257-.516 2.785a4.66 4.66 0 01-1.122 1.724 4.66 4.66 0 01-1.726 1.122c-.528.206-1.323.45-2.785.517-1.581.072-2.056.087-6.062.087s-4.48-.015-6.06-.087zM8.816.262C7.219.337 6.128.59 5.175.96a7.357 7.357 0 00-2.657 1.73 7.329 7.329 0 00-1.73 2.658C.417 6.3.164 7.392.09 8.988.017 10.589 0 11.1 0 15.174c0 4.073.017 4.585.09 6.184.074 1.597.327 2.688.698 3.641a7.332 7.332 0 001.73 2.657 7.375 7.375 0 002.657 1.73c.955.371 2.044.624 3.64.697 1.601.073 2.112.09 6.185.09 4.073 0 4.585-.016 6.184-.09 1.597-.073 2.688-.326 3.641-.697a7.376 7.376 0 002.657-1.73 7.348 7.348 0 001.73-2.657c.371-.954.626-2.044.697-3.64.073-1.602.09-2.112.09-6.185 0-4.074-.017-4.585-.09-6.184-.073-1.597-.326-2.688-.697-3.641a7.377 7.377 0 00-1.73-2.657A7.34 7.34 0 0024.826.96c-.954-.371-2.045-.626-3.64-.697C19.585.19 19.074.173 15 .173c-4.073 0-4.585.017-6.185.09z" fill="url(#paint0_radial)"/><path d="M10 15.173a5 5 0 115 5 5 5 0 01-5-5zm-2.702 0a7.702 7.702 0 1015.404 0 7.702 7.702 0 00-15.404 0zm13.91-8.008a1.8 1.8 0 101.8-1.8 1.8 1.8 0 00-1.8 1.8zM8.94 27.383c-1.462-.067-2.257-.31-2.786-.517-.7-.272-1.2-.597-1.725-1.122a4.627 4.627 0 01-1.122-1.724c-.206-.528-.45-1.323-.516-2.785-.073-1.581-.087-2.056-.087-6.062s.016-4.48.087-6.062c.067-1.462.312-2.256.516-2.785.273-.7.597-1.2 1.122-1.726a4.623 4.623 0 011.725-1.122c.528-.206 1.324-.45 2.786-.516 1.581-.072 2.056-.087 6.06-.087s4.48.016 6.062.087c1.462.067 2.256.312 2.785.516.7.272 1.2.598 1.726 1.122.525.525.85 1.025 1.122 1.726.206.528.45 1.323.516 2.785.072 1.583.087 2.056.087 6.062s-.015 4.48-.087 6.062c-.067 1.462-.312 2.257-.516 2.785a4.66 4.66 0 01-1.122 1.724 4.66 4.66 0 01-1.726 1.122c-.528.206-1.323.45-2.785.517-1.581.072-2.056.087-6.062.087s-4.48-.015-6.06-.087zM8.816.262C7.219.337 6.128.59 5.175.96a7.357 7.357 0 00-2.657 1.73 7.329 7.329 0 00-1.73 2.658C.417 6.3.164 7.392.09 8.988.017 10.589 0 11.1 0 15.174c0 4.073.017 4.585.09 6.184.074 1.597.327 2.688.698 3.641a7.332 7.332 0 001.73 2.657 7.375 7.375 0 002.657 1.73c.955.371 2.044.624 3.64.697 1.601.073 2.112.09 6.185.09 4.073 0 4.585-.016 6.184-.09 1.597-.073 2.688-.326 3.641-.697a7.376 7.376 0 002.657-1.73 7.348 7.348 0 001.73-2.657c.371-.954.626-2.044.697-3.64.073-1.602.09-2.112.09-6.185 0-4.074-.017-4.585-.09-6.184-.073-1.597-.326-2.688-.697-3.641a7.377 7.377 0 00-1.73-2.657A7.34 7.34 0 0024.826.96c-.954-.371-2.045-.626-3.64-.697C19.585.19 19.074.173 15 .173c-4.073 0-4.585.017-6.185.09z" fill="url(#paint1_radial)"/></g><defs><radialGradient id="paint0_radial" cx="0" cy="0" r="1" gradientUnits="userSpaceOnUse" gradientTransform="translate(3.986 30.315) scale(39.1625)"><stop offset=".09" stop-color="#FA8F21"/><stop offset=".78" stop-color="#D82D7E"/></radialGradient><radialGradient id="paint1_radial" cx="0" cy="0" r="1" gradientUnits="userSpaceOnUse" gradientTransform="translate(18.194 31.659) scale(30.8654)"><stop offset=".64" stop-color="#8C3AAA" stop-opacity="0"/><stop offset="1" stop-color="#8C3AAA"/></radialGradient><clipPath id="clip0"><path fill="#fff" transform="translate(0 .173)" d="M0 0h30v30H0z"/></clipPath></defs></symbol><symbol fill="none" id="sprite-leaf" viewBox="0 0 90 90"><title>leaf</title><g filter="url(#filter0_b)"><circle cx="44.5" cy="44.5" r="26.5" fill="#72DC60" fill-opacity=".35"/><circle cx="44.5" cy="44.5" r="26.5" fill="url(#paint0_linear)"/><circle cx="44.5" cy="44.5" r="27" stroke="url(#paint1_linear)" stroke-linecap="round" stroke-linejoin="round"/></g><g filter="url(#filter1_b)"><g filter="url(#filter2_b)"><rect width="90" height="90" rx="45" fill="#fff" fill-opacity=".05"/><rect width="90" height="90" rx="45" fill="url(#paint2_linear)"/></g></g><path d="M38.91 58.745c-.435 0-.863-.115-1.24-.331-.85-.482-1.38-1.418-1.38-2.433V35.426c0-1.019.53-1.952 1.38-2.434a2.49 2.49 0 012.535.032L57.773 43.54a2.552 2.552 0 010 4.324l-17.57 10.518c-.39.236-.837.361-1.293.363z" fill="#fff"/><g filter="url(#filter3_b)"><circle cx="44.5" cy="44.5" r="31.5" fill="#72DC60" fill-opacity=".35"/></g><defs><filter id="filter0_b" x="-7" y="-7" width="103" height="103" filterUnits="userSpaceOnUse" color-interpolation-filters="sRGB"><feFlood flood-opacity="0" result="BackgroundImageFix"/><feGaussianBlur in="BackgroundImage" stdDeviation="12"/><feComposite in2="SourceAlpha" operator="in" result="effect1_backgroundBlur"/><feBlend in="SourceGraphic" in2="effect1_backgroundBlur" result="shape"/></filter><filter id="filter1_b" x="-25" y="-25" width="140" height="140" filterUnits="userSpaceOnUse" color-interpolation-filters="sRGB"><feFlood flood-opacity="0" result="BackgroundImageFix"/><feGaussianBlur in="BackgroundImage" stdDeviation="12.5"/><feComposite in2="SourceAlpha" operator="in" result="effect1_backgroundBlur"/><feBlend in="SourceGraphic" in2="effect1_backgroundBlur" result="shape"/></filter><filter id="filter2_b" x="-25" y="-25" width="140" height="140" filterUnits="userSpaceOnUse" color-interpolation-filters="sRGB"><feFlood flood-opacity="0" result="BackgroundImageFix"/><feGaussianBlur in="BackgroundImage" stdDeviation="12.5"/><feComposite in2="SourceAlpha" operator="in" result="effect1_backgroundBlur"/><feBlend in="SourceGraphic" in2="effect1_backgroundBlur" result="shape"/></filter><filter id="filter3_b" x="-11" y="-11" width="111" height="111" filterUnits="userSpaceOnUse" color-interpolation-filters="sRGB"><feFlood flood-opacity="0" result="BackgroundImageFix"/><feGaussianBlur in="BackgroundImage" stdDeviation="12"/><feComposite in2="SourceAlpha" operator="in" result="effect1_backgroundBlur"/><feBlend in="SourceGraphic" in2="effect1_backgroundBlur" result="shape"/></filter><filter id="filter4_bdd" x="13" y="15" width="62" height="59" filterUnits="userSpaceOnUse" color-interpolation-filters="sRGB"><feFlood flood-opacity="0" result="BackgroundImageFix"/><feGaussianBlur in="BackgroundImage" stdDeviation="7.5"/><feComposite in2="SourceAlpha" operator="in" result="effect1_backgroundBlur"/><feColorMatrix in="SourceAlpha" values="0 0 0 0 0 0 0 0 0 0 0 0 0 0 0 0 0 0 127 0"/><feOffset dx="5" dy="5"/><feGaussianBlur stdDeviation="5"/><feColorMatrix values="0 0 0 0 0.15375 0 0 0 0 0.522433 0 0 0 0 0.9 0 0 0 0.5 0"/><feBlend in2="effect1_backgroundBlur" result="effect2_dropShadow"/><feColorMatrix in="SourceAlpha" values="0 0 0 0 0 0 0 0 0 0 0 0 0 0 0 0 0 0 127 0"/><feOffset dx="5" dy="5"/><feGaussianBlur stdDeviation="5"/><feColorMatrix values="0 0 0 0 0.454902 0 0 0 0 0.870588 0 0 0 0 0.376471 0 0 0 0.5 0"/><feBlend in2="effect2_dropShadow" result="effect3_dropShadow"/><feBlend in="SourceGraphic" in2="effect3_dropShadow" result="shape"/></filter><linearGradient id="paint0_linear" x1="71" y1="18" x2="33.63" y2="61.706" gradientUnits="userSpaceOnUse"><stop stop-color="#9BF763"/><stop offset="1" stop-color="#26AB5B"/></linearGradient><linearGradient id="paint1_linear" x1="26.437" y1="24.175" x2="60.245" y2="66.047" gradientUnits="userSpaceOnUse"><stop stop-color="#fff" stop-opacity=".25"/><stop offset="1" stop-color="#fff" stop-opacity="0"/></linearGradient><linearGradient id="paint2_linear" x1="66.411" y1="5.444" x2="45" y2="90" gradientUnits="userSpaceOnUse"><stop stop-color="#fff" stop-opacity=".59"/><stop offset="1" stop-color="#fff" stop-opacity="0"/></linearGradient><linearGradient id="paint3_linear" x1="57.731" y1="35.237" x2="22.095" y2="36.519" gradientUnits="userSpaceOnUse"><stop stop-color="#fff"/><stop offset="1" stop-color="#fff" stop-opacity=".2"/></linearGradient></defs></symbol><symbol fill="none" id="sprite-logo" viewBox="0 0 208 38"><title>logo</title><path fill-rule="evenodd" clip-rule="evenodd" d="M.254 22.974c0 3.21 2.962 5.476 6.783 5.476 4.532 0 6.664-2.883 6.664-5.37 0-3.98-3.911-4.874-6.25-5.422-2.724-.65-4.325-1.221-4.325-3.235 0-1.643 1.065-3.357 3.759-3.357 3.32 0 4.031 2.143 4.088 3.307h2.192c-.06-2.438-1.954-4.974-6.012-4.974-4.532 0-6.218 2.934-6.218 5 0 4.228 4.826 4.402 7.638 5.32.949.3 2.934 1.096 2.934 3.334 0 1.964-1.63 3.728-4.532 3.728-4.086 0-4.473-3.057-4.532-3.809l-2.19.002zm18.235 5.352h2.035v-7.561h4.399c5.142 0 7.01-2.824 7.01-5.624 0-2.143-1.043-5.65-7.01-5.65h-6.434v18.835zm2.035-17.13h4.42c3.629 0 4.95 1.934 4.95 3.945 0 1.96-1.321 3.919-4.95 3.919h-4.42v-7.864zM33.28 28.34h1.722l2.305-6.311h7.407l2.305 6.31h1.722L41.915 9.507H40.15L33.27 28.34h.01zm4.651-8.018l3.102-8.628 3.057 8.627h-6.159zm29.287-5.938c-1.316-3.16-3.973-4.988-7.243-4.988-4.544 0-8.156 3.976-8.156 9.41 0 5.577 3.676 9.503 8.284 9.503 3.083 0 5.713-1.905 7.179-5.085h-1.869c-1.273 2.369-3.398 3.43-5.31 3.43-3.738 0-6.711-3.356-6.711-7.856 0-4.173 2.653-7.754 6.604-7.754 3.378 0 4.929 2.569 5.353 3.333l1.869.007z" fill="#474747"/><path d="M60.103 28.395c-4.77 0-8.367-4.123-8.367-9.59 0-5.411 3.543-9.492 8.239-9.492 3.32 0 5.986 1.836 7.321 5.04l.047.117H65.3l-.024-.043c-.683-1.23-2.274-3.29-5.279-3.29-3.716 0-6.522 3.295-6.522 7.668 0 4.374 2.913 7.773 6.629 7.773 2.134 0 4.096-1.266 5.236-3.387l.024-.046h2.05l-.055.122c-1.502 3.257-4.146 5.128-7.255 5.128zm-.128-18.912c-4.6 0-8.063 4.006-8.063 9.322 0 5.371 3.524 9.421 8.198 9.421 3.003 0 5.564-1.79 7.046-4.919H65.47c-1.186 2.143-3.173 3.433-5.36 3.433-3.811 0-6.794-3.485-6.794-7.935 0-4.45 2.874-7.837 6.687-7.837 3.055 0 4.689 2.067 5.403 3.333h1.69c-1.327-3.064-3.915-4.818-7.121-4.818z" fill="#474747"/><path fill-rule="evenodd" clip-rule="evenodd" d="M71.999 28.364h13.49V26.65h-11.03v-6.959h10.664v-1.714H74.458v-6.83h11.03V9.433H72v18.931z" fill="#474747"/><path fill-rule="evenodd" clip-rule="evenodd" d="M107.632.918l-2.964 1.905 2.971 1.598V.926l-.007-.008zm-4.615 2.953l4.624 2.487.024 11.214-7.89-4.88.052-6.779 3.19-2.042zm-3.73 10.527l-6.485 2.786v3.354l6.47 3.024 7.577-4.486-7.565-4.678h.002zm.516 10.842l7.869-4.66.022 10.15-4.649 3.421-3.277-1.957.035-6.954zm4.827 9.859l3.083 1.833v-4.088l-3.083 2.255zm-7.148-10.476l-4.675 2.77v-4.957l4.68 2.187h-.005zm-3.558 4.093l4.167 2.488.026-4.969-4.18 2.486-.013-.005zm4.212-21.727L94.403 9.37l3.698 2.286.035-4.676v.01zm-5.317 3.4l4.696 2.905-4.703 2.023v-4.904l.007-.024z" fill="#B3B3B3"/><path fill-rule="evenodd" clip-rule="evenodd" d="M109.458.914l.01 13.189 6.325 4.211 8.552-5.09.009-2.766L109.458.914z" fill="url(#paint0_linear)"/><path fill-rule="evenodd" clip-rule="evenodd" d="M124.38 15.55l-14.884 8.795v12.741l14.867-7.96.017-13.576z" fill="url(#paint1_linear)"/><path fill-rule="evenodd" clip-rule="evenodd" d="M146.092 14.556c-1.319-3.157-3.973-4.983-7.243-4.983-4.546 0-8.156 3.97-8.156 9.399 0 5.575 3.674 9.497 8.282 9.497 3.083 0 5.715-1.905 7.178-5.08h-1.868c-1.274 2.366-3.399 3.427-5.31 3.427-3.738 0-6.712-3.354-6.712-7.844 0-4.169 2.656-7.747 6.607-7.747 3.377 0 4.926 2.566 5.353 3.333l1.869-.002zm3.156 13.813h1.725l2.302-6.333h7.409l2.305 6.332h1.722l-6.828-18.895h-1.764l-6.878 18.895h.007zm4.654-8.045l3.099-8.656 3.059 8.656h-6.158zm15.424 8.111h5.806c6.923 0 7.639-3.895 7.639-5.39 0-1.985-1.058-4.152-3.69-4.847 1.114-.619 2.544-1.755 2.544-3.81 0-4.794-4.805-5.027-7.008-5.027h-5.291v19.074zm2.116-1.728v-7.452h3.69c2.089 0 5.492.336 5.492 3.81 0 3.332-3.517 3.635-5.492 3.635l-3.69.007zm0-9.18V11.08h3.175c1.547 0 4.893.076 4.893 3.223 0 2.94-3.119 3.224-4.893 3.224h-3.175z" fill="#275FA1"/><path d="M189.499 9.404h-2.118v18.993h2.118V9.404z" fill="#275FA1"/><path fill-rule="evenodd" clip-rule="evenodd" d="M194.176 28.428h1.681V11.692l10.094 16.736h1.681V9.375h-1.681v15.81l-9.503-15.81h-2.272v19.053z" fill="#275FA1"/><defs><linearGradient id="paint0_linear" x1="123.289" y1=".914" x2="106.193" y2="11.017" gradientUnits="userSpaceOnUse"><stop stop-color="#39AFFD"/><stop offset="1" stop-color="#3A76FF"/></linearGradient><linearGradient id="paint1_linear" x1="123.315" y1="15.55" x2="104.541" y2="24.508" gradientUnits="userSpaceOnUse"><stop stop-color="#39AFFD"/><stop offset="1" stop-color="#3A76FF"/></linearGradient></defs></symbol><symbol fill="none" id="sprite-menu" viewBox="0 0 24 24"><title>menu</title><path d="M3 5h11M3 12h18M3 19h18" stroke="#1F1F1F" stroke-width="1.5" stroke-miterlimit="10" stroke-linecap="round"/></symbol><symbol class="ldi-47ibm8" preserveAspectRatio="xMidYMid" style="width:525px;webkit-user-select:none;webkit-transform-origin:262.5px 262.5px;webkit-perspective-origin:262.5px 262.5px;webkit-logical-width:525px;webkit-logical-height:525px;user-select:none;transform-origin:262.5px 262.5px;r:0;perspective-origin:262.5px 262.5px;overflow-y:hidden;overflow-x:hidden;inline-size:525px;height:525px;d:none;block-size:525px;background:0 0/auto padding-box border-box" pointer-events="all" overflow="hidden" display="block" id="sprite-ok" viewBox="0 0 100 100"><title>ok</title><svg version="1.1" id="圖層_1" xmlns="http://www.w3.org/2000/svg" x="0" y="0" viewBox="0 0 100 100" xml:space="preserve" style="x:0;webkit-user-select:none;webkit-transform-origin:50px 50px;webkit-perspective-origin:0 0;user-select:none;transform-origin:50px 50px;r:0;perspective-origin:0 0;overflow-y:hidden;overflow-x:hidden" pointer-events="all" overflow="hidden" display="block"><g style="x:0;webkit-user-select:none;webkit-transform-origin:50px 50px;webkit-perspective-origin:0 0;user-select:none;transform-origin:50px 50px;r:0;perspective-origin:0 0"><g style="x:0;webkit-user-select:none;webkit-transform-origin:50px 50px;webkit-transform:matrix(.7,0,0,.7,0,0);webkit-perspective-origin:0 0;user-select:none;transform-origin:50px 50px;r:0;perspective-origin:0 0"><g style="x:0;webkit-user-select:none;webkit-transform-origin:50px 50px;webkit-perspective-origin:0 0;user-select:none;transform-origin:50px 50px;r:0;perspective-origin:0 0"><g style="webkit-user-select:none;webkit-perspective-origin:0 0;user-select:none;perspective-origin:0 0" transform="scale(.7)"><style/><g style="y:0;x:0;webkit-user-select:none;webkit-transform-origin:50px 50px;webkit-perspective-origin:0 0;webkit-animation-duration:2.2s;webkit-animation-delay:.169231s;webkit-animation:2.2s ease .169231s 1 normal none running none;user-select:none;transform-origin:50px 50px;r:0;perspective-origin:0 0;d:none"><circle cx="50" cy="50" r="40" stroke="#3c3" style="webkit-user-select:none;webkit-perspective-origin:0 0;user-select:none;r:40px;perspective-origin:0 0;cy:50px;cx:50px" stroke-width="8" stroke-miterlimit="10" fill="none"/></g><g style="x:0;webkit-user-select:none;webkit-transform-origin:50px 50px;webkit-perspective-origin:0 0;user-select:none;transform-origin:50px 50px;r:0;perspective-origin:0 0"><g style="webkit-user-select:none;webkit-perspective-origin:0 0;user-select:none;perspective-origin:0 0"><g style="y:0;x:0;webkit-user-select:none;webkit-transform-origin:50px 50px;webkit-perspective-origin:0 0;webkit-animation-duration:2.2s;webkit-animation-delay:.338462s;webkit-animation:2.2s ease .338462s 1 normal none running none;user-select:none;transform-origin:50px 50px;r:0;perspective-origin:0 0;d:none" class="ld"><path fill="#3c3" style="webkit-user-select:none;webkit-perspective-origin:0 0;user-select:none;r:0;perspective-origin:0 0" d="M43.7 69.4L25 47.7l3.9-3.9 14.8 12.6 28.6-25.8 2.7 2.7z"/></g></g></g></g></g></g></g><style>@keyframes ldt-bounce-in{0%{-webkit-transform:scale(0);transform:scale(0)}5%{-webkit-transform:scale(.0846);transform:scale(.0846)}6%{-webkit-transform:scale(.191);transform:scale(.191)}7%{-webkit-transform:scale(.3255);transform:scale(.3255)}8%{-webkit-transform:scale(.4804);transform:scale(.4804)}9%{-webkit-transform:scale(.646);transform:scale(.646)}10%{-webkit-transform:scale(.8116);transform:scale(.8116)}11%{-webkit-transform:scale(.9665);transform:scale(.9665)}12%{-webkit-transform:scale(1.1);transform:scale(1.1)}13%{-webkit-transform:scale(1.2069);transform:scale(1.2069)}14%{-webkit-transform:scale(1.2796);transform:scale(1.2796)}19%{-webkit-transform:scale(1.1558);transform:scale(1.1558)}20%{-webkit-transform:scale(1.07);transform:scale(1.07)}21%{-webkit-transform:scale(.9823);transform:scale(.9823)}22%{-webkit-transform:scale(.901);transform:scale(.901)}23%{-webkit-transform:scale(.8328);transform:scale(.8328)}25%{-webkit-transform:scale(.7551);transform:scale(.7551)}29%{-webkit-transform:scale(.8516);transform:scale(.8516)}31%{-webkit-transform:scale(.973);transform:scale(.973)}33%{-webkit-transform:scale(1.0857);transform:scale(1.0857)}35%{-webkit-transform:scale(1.1538);transform:scale(1.1538)}40%{-webkit-transform:scale(1.0771);transform:scale(1.0771)}42%{-webkit-transform:scale(.9954);transform:scale(.9954)}45%{-webkit-transform:scale(.9057);transform:scale(.9057)}52%{-webkit-transform:scale(.9908);transform:scale(.9908)}56%{-webkit-transform:scale(1.0623);transform:scale(1.0623)}64%{-webkit-transform:scale(.9845);transform:scale(.9845)}}@-webkit-keyframes ldt-bounce-in{0%{-webkit-transform:scale(0);transform:scale(0)}5%{-webkit-transform:scale(.0846);transform:scale(.0846)}6%{-webkit-transform:scale(.191);transform:scale(.191)}7%{-webkit-transform:scale(.3255);transform:scale(.3255)}8%{-webkit-transform:scale(.4804);transform:scale(.4804)}9%{-webkit-transform:scale(.646);transform:scale(.646)}10%{-webkit-transform:scale(.8116);transform:scale(.8116)}11%{-webkit-transform:scale(.9665);transform:scale(.9665)}12%{-webkit-transform:scale(1.1);transform:scale(1.1)}13%{-webkit-transform:scale(1.2069);transform:scale(1.2069)}14%{-webkit-transform:scale(1.2796);transform:scale(1.2796)}19%{-webkit-transform:scale(1.1558);transform:scale(1.1558)}20%{-webkit-transform:scale(1.07);transform:scale(1.07)}21%{-webkit-transform:scale(.9823);transform:scale(.9823)}22%{-webkit-transform:scale(.901);transform:scale(.901)}23%{-webkit-transform:scale(.8328);transform:scale(.8328)}25%{-webkit-transform:scale(.7551);transform:scale(.7551)}29%{-webkit-transform:scale(.8516);transform:scale(.8516)}31%{-webkit-transform:scale(.973);transform:scale(.973)}33%{-webkit-transform:scale(1.0857);transform:scale(1.0857)}35%{-webkit-transform:scale(1.1538);transform:scale(1.1538)}40%{-webkit-transform:scale(1.0771);transform:scale(1.0771)}42%{-webkit-transform:scale(.9954);transform:scale(.9954)}45%{-webkit-transform:scale(.9057);transform:scale(.9057)}52%{-webkit-transform:scale(.9908);transform:scale(.9908)}56%{-webkit-transform:scale(1.0623);transform:scale(1.0623)}64%{-webkit-transform:scale(.9845);transform:scale(.9845)}}</style></svg></symbol><symbol fill="none" id="sprite-phone" viewBox="0 0 24 24"><title>phone</title><path d="M10.147 13.76a13.579 13.579 0 004.933 3.193l2.513-2a.447.447 0 01.507 0l4.667 3.007a1.334 1.334 0 01.22 2.12L20.8 22.24a2.667 2.667 0 01-2.42.713 23.393 23.393 0 01-11.433-6 22.526 22.526 0 01-6.18-11.22A2.52 2.52 0 011.5 3.367L3.767 1.18a1.333 1.333 0 012.08.213L8.953 6a.42.42 0 010 .5L6.907 8.96c.71 1.82 1.817 3.46 3.24 4.8z" fill="#1F1F1F"/></symbol><symbol fill="none" id="sprite-quote-mark" viewBox="0 0 16 14"><title>quote-mark</title><path fill-rule="evenodd" clip-rule="evenodd" d="M15.93 2.187c-2.386 1.213-3.58 2.642-3.58 4.282 1.017.121 1.858.551 2.523 1.29.665.74.997 1.595.997 2.566 0 1.033-.322 1.904-.968 2.612-.645.709-1.457 1.063-2.435 1.063-1.095 0-2.043-.46-2.845-1.382-.802-.921-1.203-2.04-1.203-3.356 0-3.947 2.132-7.035 6.395-9.262l1.115 2.187zm-8.42 0C5.104 3.4 3.902 4.829 3.902 6.469c1.036.121 1.887.551 2.552 1.29.665.74.997 1.595.997 2.566 0 1.033-.327 1.904-.983 2.612C5.813 13.646 4.997 14 4.018 14c-1.094 0-2.038-.46-2.83-1.382C.396 11.697 0 10.578 0 9.262 0 5.315 2.122 2.227 6.366 0L7.51 2.187z" fill="#000"/></symbol><symbol fill="none" id="sprite-ru" viewBox="0 0 38 38"><title>ru</title><path d="M19 38c10.493 0 19-8.507 19-19S29.493 0 19 0 0 8.507 0 19s8.507 19 19 19z" fill="#F0F0F0"/><path d="M36.818 25.609A18.957 18.957 0 0038 19c0-2.324-.418-4.55-1.182-6.609H1.182A18.96 18.96 0 000 19c0 2.324.418 4.55 1.182 6.609L19 27.26l17.818-1.652z" fill="#0052B4"/><path d="M19 38c8.17 0 15.134-5.156 17.818-12.391H1.182C3.866 32.844 10.83 38 19 38z" fill="#D80027"/></symbol><symbol fill="none" id="sprite-shape" viewBox="0 0 1684 1664"><title>shape</title><g filter="url(#filter0_f)"><path fill-rule="evenodd" clip-rule="evenodd" d="M1277.81 879.163c6.42 91.518 21.4 199.907-43.22 264.987-64.48 64.93-174.99 23.3-264.004 44.4-78.172 18.53-146.927 93.79-224.053 71.29-77.309-22.54-97.143-121.18-151.338-180.78-64.164-70.56-187.317-104.784-194.804-199.897-7.409-94.122 92.095-160.133 161.421-224.171 57.244-52.876 131.528-72.341 199.944-109.624 89.801-48.937 163.14-164.299 263.094-142.705 98.29 21.236 127.21 148.356 174.38 237.222 40.35 76.002 72.56 153.427 78.58 239.278z" fill="url(#paint0_angular)" fill-opacity=".25"/></g><defs><radialGradient id="paint0_angular" cx="0" cy="0" r="1" gradientUnits="userSpaceOnUse" gradientTransform="matrix(-340.711 0 0 -381.78 943.288 882.222)"><stop offset=".504" stop-color="#00CF85"/><stop offset="1" stop-color="#0078CF"/></radialGradient><filter id="filter0_f" x="0" y="0" width="1684" height="1664" filterUnits="userSpaceOnUse" color-interpolation-filters="sRGB"><feFlood flood-opacity="0" result="BackgroundImageFix"/><feBlend in="SourceGraphic" in2="BackgroundImageFix" result="shape"/><feGaussianBlur stdDeviation="200" result="effect1_foregroundBlur"/></filter></defs></symbol><symbol fill="none" id="sprite-shape2" viewBox="0 0 2590 790"><title>shape2</title><g filter="url(#filter0_f)"><path fill-rule="evenodd" clip-rule="evenodd" d="M210.087 218.884c14.976-19.834 43.195-23.772 63.029-8.797 282.557 213.347 456.995 282.812 580.817 288.609 118.109 5.529 197.447-45.915 297.017-110.473l8.21-5.324c102.92-66.673 222.89-140.795 411.4-143.084 186.3-2.262 433.67 65.498 795.15 264.599 21.77 11.99 29.7 39.358 17.71 61.127-11.99 21.769-39.36 29.696-61.13 17.706-355.52-195.814-586.77-255.428-750.63-253.439-161.65 1.963-263.37 63.716-363.57 128.627-4.52 2.93-9.05 5.877-13.6 8.833-95.61 62.172-197.214 128.237-344.766 121.329-152.085-7.12-344.897-90.78-630.84-306.684-19.834-14.976-23.772-43.195-8.797-63.029z" fill="url(#paint0_angular)" fill-opacity=".25"/></g><defs><radialGradient id="paint0_angular" cx="0" cy="0" r="1" gradientUnits="userSpaceOnUse" gradientTransform="matrix(0 168.043 -927.053 0 1416.95 414.044)"><stop offset=".504" stop-color="#00CF85"/><stop offset="1" stop-color="#0078CF"/></radialGradient><filter id="filter0_f" x=".998" y=".998" width="2588.01" height="788.098" filterUnits="userSpaceOnUse" color-interpolation-filters="sRGB"><feFlood flood-opacity="0" result="BackgroundImageFix"/><feBlend in="SourceGraphic" in2="BackgroundImageFix" result="shape"/><feGaussianBlur stdDeviation="100" result="effect1_foregroundBlur"/></filter></defs></symbol><symbol fill="none" id="sprite-tr" viewBox="0 0 38 38"><title>tr</title><path d="M19 38c10.493 0 19-8.507 19-19S29.493 0 19 0 0 8.507 0 19s8.507 19 19 19z" fill="#D80027"/><path d="M18.222 15.525l1.559 2.149 2.525-.819-1.562 2.147 1.559 2.148-2.524-.822-1.561 2.146.002-2.654-2.524-.822 2.524-.818.002-2.655z" fill="#F0F0F0"/><path d="M13.967 24.37a5.37 5.37 0 112.555-10.094 6.609 6.609 0 100 9.448c-.76.412-1.63.646-2.554.646z" fill="#F0F0F0"/></symbol><symbol fill="none" id="sprite-ua" viewBox="0 0 38 39"><title>ua</title><g clip-path="url(#clip0)"><path d="M19 38.5c10.493 0 19-8.507 19-19S29.493.5 19 .5 0 9.007 0 19.5s8.507 19 19 19z" fill="#FFDA44"/><path d="M0 19.5C0 9.007 8.507.5 19 .5s19 8.507 19 19" fill="#338AF3"/></g><defs><clipPath id="clip0"><path fill="#fff" transform="translate(0 .5)" d="M0 0h38v38H0z"/></clipPath></defs></symbol><symbol fill="none" id="sprite-us" viewBox="0 0 38 38"><title>us</title><g clip-path="url(#clip0)"><path d="M19 38c10.493 0 19-8.507 19-19S29.493 0 19 0 0 8.507 0 19s8.507 19 19 19z" fill="#F0F0F0"/><path d="M18.174 19H38c0-1.715-.229-3.376-.654-4.956H18.174V19zm0-9.913h17.037a19.1 19.1 0 00-4.384-4.956H18.174v4.956zM19 38c4.472 0 8.582-1.545 11.827-4.13H7.173A18.919 18.919 0 0019 38zM2.789 28.913H35.21a18.886 18.886 0 002.135-4.956H.654a18.887 18.887 0 002.134 4.956z" fill="#D80027"/><path d="M8.801 2.967h1.732l-1.61 1.17.614 1.893-1.61-1.17-1.61 1.17.53-1.635a19.105 19.105 0 00-3.684 4.107h.554l-1.025.745c-.16.266-.313.537-.46.812l.49 1.506-.913-.663c-.227.48-.435.973-.622 1.475l.54 1.66h1.99l-1.61 1.17.615 1.893-1.61-1.17-.965.7A19.181 19.181 0 000 19h19V0A18.91 18.91 0 008.801 2.967zM9.537 17.1l-1.61-1.17-1.61 1.17.615-1.893-1.611-1.17h1.99l.616-1.894.615 1.894h1.99l-1.61 1.17.615 1.893zm-.615-7.428l.615 1.893-1.61-1.17-1.61 1.17.615-1.893-1.611-1.17h1.99l.616-1.893.615 1.893h1.99l-1.61 1.17zm7.43 7.428l-1.61-1.17-1.61 1.17.615-1.893-1.61-1.17h1.99l.615-1.894.615 1.894h1.99l-1.61 1.17.615 1.893zm-.615-7.428l.615 1.893-1.61-1.17-1.61 1.17.615-1.893-1.61-1.17h1.99l.615-1.893.615 1.893h1.99l-1.61 1.17zm0-5.535l.615 1.893-1.61-1.17-1.61 1.17.615-1.893-1.61-1.17h1.99l.615-1.893.615 1.893h1.99l-1.61 1.17z" fill="#0052B4"/></g><defs><clipPath id="clip0"><path fill="#fff" d="M0 0h38v38H0z"/></clipPath></defs></symbol><symbol fill="none" id="sprite-youtube-logo" viewBox="0 0 39 27"><title>youtube-logo</title><path d="M15.92 26.963c-7.32-.134-9.821-.256-11.358-.572-1.04-.21-1.943-.678-2.606-1.355-.512-.513-.92-1.295-1.235-2.38C.45 21.75.344 20.998.194 19.16c-.23-4.148-.285-7.54 0-11.328.235-2.093.35-4.577 1.913-6.026A5.128 5.128 0 014.667.512C6.175.226 12.592 0 19.235 0c6.628 0 13.06.226 14.567.512 1.205.226 2.334.904 2.997 1.777 1.427 2.244 1.452 5.034 1.597 7.216.06 1.04.06 6.944 0 7.984-.226 3.449-.407 4.67-.919 5.934-.317.799-.587 1.22-1.055 1.688a5.053 5.053 0 01-2.681 1.37c-6.335.477-11.715.58-17.82.482zm9.701-13.858c-3.524-1.883-6.9-3.63-10.349-5.438v10.816c3.63-1.973 7.457-3.781 10.364-5.393l-.015.015z" fill="#CD201F"/></symbol></svg>