<svg width="90" height="90" viewBox="0 0 90 90" fill="none" xmlns="http://www.w3.org/2000/svg">
    <defs>
        <linearGradient id="check-gradient" x1="1" x2="0" y1="0" y2="1">
            <stop stop-color="#FFFFFF" offset="0%"></stop>
            <stop stop-color="rgba(255, 255, 255, 0.2)" offset="100%"></stop>
        </linearGradient>

        <linearGradient id="circleGradient" x1="0.89" y1="0.10" x2="0.10" y2="0.89">
            <stop stop-color="rgba(255, 255, 255, 0.59)" offset="0%"></stop>
            <stop stop-color="rgba(255, 255, 255, 0)" offset="100%"></stop>
        </linearGradient>

        <filter id="shadow">
            <feDropShadow dx="5" dy="5" stdDeviation="10" flood-color="rgba(147, 92, 239, 0.5)"/>
        </filter>

        <filter id="circleBlur" x="-20%" y="-20%" width="140%" height="140%">
            <feGaussianBlur stdDeviation="3 3" x="0%" y="0%" width="100%" height="100%" in="SourceGraphic" edgeMode="wrap" result="blur"/>
            <feMerge x="0%" y="0%" width="100%" height="100%" result="merge">
                <feMergeNode in="SourceGraphic"/>
                <feMergeNode in="blur"/>
            </feMerge>
        </filter>
    </defs>

    <circle cx="45" cy="45" r="31.5" fill="#BC94FF"></circle>

    <circle cx="45" cy="45" r="45" fill="url(#circleGradient)" filter="url(#circleBlur)"></circle>

    <circle cx="45" cy="45" r="31.5" fill="rgba(186, 144, 255, 0.35)"></circle>

    <path d="M58.368 34.039a3.615 3.615 0 01.072 5.185L43.875 53.89A3.78 3.78 0 0141.193 55a3.78 3.78 0 01-2.681-1.11l-6.952-7a3.615 3.615 0 01.072-5.184 3.796 3.796 0 015.292.07l4.27 4.3L53.075 34.11a3.796 3.796 0 015.292-.071z" fill="url(#check-gradient)" filter="url(#shadow)"></path>
</svg>