<svg width="20" height="18" viewBox="0 0 20 18" fill="none" xmlns="http://www.w3.org/2000/svg">
<path d="M1 12V16.5H19V12" stroke="#1F1F1F" stroke-width="2" stroke-linecap="round"/>
<path d="M11 1C11 0.447715 10.5523 0 10 0C9.44772 0 9 0.447715 9 1H11ZM10 12L9.29289 12.7071L10 13.4142L10.7071 12.7071L10 12ZM6.20711 6.79289C5.81658 6.40237 5.18342 6.40237 4.79289 6.79289C4.40237 7.18342 4.40237 7.81658 4.79289 8.20711L6.20711 6.79289ZM15.2071 8.20711C15.5976 7.81658 15.5976 7.18342 15.2071 6.79289C14.8166 6.40237 14.1834 6.40237 13.7929 6.79289L15.2071 8.20711ZM9 1V12H11V1H9ZM10.7071 11.2929L6.20711 6.79289L4.79289 8.20711L9.29289 12.7071L10.7071 11.2929ZM10.7071 12.7071L15.2071 8.20711L13.7929 6.79289L9.29289 11.2929L10.7071 12.7071Z" fill="#1F1F1F"/>
</svg>
