<svg width="90" height="90" viewBox="0 0 90 90" fill="none" xmlns="http://www.w3.org/2000/svg">
<g filter="url(#filter0_b)">
<circle cx="45.5" cy="44.5" r="26.5" fill="url(#paint0_linear)"/>
<circle cx="45.5" cy="44.5" r="27" stroke="url(#paint1_linear)" stroke-linecap="round" stroke-linejoin="round"/>
</g>
<g filter="url(#filter1_b)">
<g filter="url(#filter2_b)">
<rect width="90" height="90" rx="45" fill="white" fill-opacity="0.05"/>
<rect width="90" height="90" rx="45" fill="url(#paint2_linear)"/>
</g>
</g>
<path d="M38.91 58.745C38.4748 58.7442 38.0473 58.6302 37.6696 58.414C36.819 57.9321 36.2903 56.9964 36.2903 55.9807V35.4257C36.2903 34.4071 36.819 33.4744 37.6696 32.9924C38.0563 32.7701 38.4956 32.6558 38.9416 32.6615C39.3876 32.6671 39.824 32.7924 40.205 33.0243L57.7725 43.54C58.1386 43.7695 58.4404 44.0883 58.6496 44.4665C58.8588 44.8446 58.9686 45.2697 58.9686 45.7018C58.9686 46.1339 58.8588 46.559 58.6496 46.9371C58.4404 47.3153 58.1386 47.6341 57.7725 47.8636L40.2021 58.3821C39.8122 58.6179 39.3656 58.7433 38.91 58.745Z" fill="white"/>
<g filter="url(#filter3_b)">
<circle cx="45.5" cy="44.5" r="31.5" fill="#FFCBB9" fill-opacity="0.35"/>
</g>
<g filter="url(#filter4_bd)">

</g>
<defs>
<filter id="filter0_b" x="-6" y="-7" width="103" height="103" filterUnits="userSpaceOnUse" color-interpolation-filters="sRGB">
<feFlood flood-opacity="0" result="BackgroundImageFix"/>
<feGaussianBlur in="BackgroundImage" stdDeviation="12"/>
<feComposite in2="SourceAlpha" operator="in" result="effect1_backgroundBlur"/>
<feBlend mode="normal" in="SourceGraphic" in2="effect1_backgroundBlur" result="shape"/>
</filter>
<filter id="filter1_b" x="-25" y="-25" width="140" height="140" filterUnits="userSpaceOnUse" color-interpolation-filters="sRGB">
<feFlood flood-opacity="0" result="BackgroundImageFix"/>
<feGaussianBlur in="BackgroundImage" stdDeviation="12.5"/>
<feComposite in2="SourceAlpha" operator="in" result="effect1_backgroundBlur"/>
<feBlend mode="normal" in="SourceGraphic" in2="effect1_backgroundBlur" result="shape"/>
</filter>
<filter id="filter2_b" x="-25" y="-25" width="140" height="140" filterUnits="userSpaceOnUse" color-interpolation-filters="sRGB">
<feFlood flood-opacity="0" result="BackgroundImageFix"/>
<feGaussianBlur in="BackgroundImage" stdDeviation="12.5"/>
<feComposite in2="SourceAlpha" operator="in" result="effect1_backgroundBlur"/>
<feBlend mode="normal" in="SourceGraphic" in2="effect1_backgroundBlur" result="shape"/>
</filter>
<filter id="filter3_b" x="-10" y="-11" width="111" height="111" filterUnits="userSpaceOnUse" color-interpolation-filters="sRGB">
<feFlood flood-opacity="0" result="BackgroundImageFix"/>
<feGaussianBlur in="BackgroundImage" stdDeviation="12"/>
<feComposite in2="SourceAlpha" operator="in" result="effect1_backgroundBlur"/>
<feBlend mode="normal" in="SourceGraphic" in2="effect1_backgroundBlur" result="shape"/>
</filter>
<filter id="filter4_bd" x="14" y="19" width="63" height="52" filterUnits="userSpaceOnUse" color-interpolation-filters="sRGB">
<feFlood flood-opacity="0" result="BackgroundImageFix"/>
<feGaussianBlur in="BackgroundImage" stdDeviation="7.5"/>
<feComposite in2="SourceAlpha" operator="in" result="effect1_backgroundBlur"/>
<feColorMatrix in="SourceAlpha" type="matrix" values="0 0 0 0 0 0 0 0 0 0 0 0 0 0 0 0 0 0 127 0"/>
<feOffset dx="5" dy="5"/>
<feGaussianBlur stdDeviation="5"/>
<feColorMatrix type="matrix" values="0 0 0 0 1 0 0 0 0 0.52549 0 0 0 0 0.137255 0 0 0 0.5 0"/>
<feBlend mode="normal" in2="effect1_backgroundBlur" result="effect2_dropShadow"/>
<feBlend mode="normal" in="SourceGraphic" in2="effect2_dropShadow" result="shape"/>
</filter>
<linearGradient id="paint0_linear" x1="45.5" y1="18" x2="45.5" y2="71" gradientUnits="userSpaceOnUse">
<stop stop-color="#FFB37F"/>
<stop offset="1" stop-color="#FF7B0D"/>
</linearGradient>
<linearGradient id="paint1_linear" x1="27.4367" y1="24.1746" x2="61.2451" y2="66.047" gradientUnits="userSpaceOnUse">
<stop stop-color="white" stop-opacity="0.25"/>
<stop offset="1" stop-color="white" stop-opacity="0"/>
</linearGradient>
<linearGradient id="paint2_linear" x1="66.4113" y1="5.44355" x2="45" y2="90" gradientUnits="userSpaceOnUse">
<stop stop-color="white" stop-opacity="0.59"/>
<stop offset="1" stop-color="white" stop-opacity="0"/>
</linearGradient>
<linearGradient id="paint3_linear" x1="59.6603" y1="37.9728" x2="22.9502" y2="39.7681" gradientUnits="userSpaceOnUse">
<stop stop-color="white"/>
<stop offset="1" stop-color="white" stop-opacity="0.2"/>
</linearGradient>
</defs>
</svg>
