<svg width="33" height="22" viewBox="0 0 33 22" fill="none" xmlns="http://www.w3.org/2000/svg">
<path fill-rule="evenodd" clip-rule="evenodd" d="M16.4835 0C19.8213 0 23.0381 1.045 26.0439 3.10612C28.6756 4.9115 31.1864 8.01419 33 11C31.1926 14.0126 28.6901 17.1187 26.0604 18.9207C23.0732 20.9639 19.8522 22 16.4835 22C13.0852 22 9.85738 20.9632 6.88875 18.9186C4.301 17.1353 1.81638 14.025 0 11C2.24606 7.63125 4.98575 4.41581 7.78044 2.6455C10.5518 0.89375 13.4798 0 16.4835 0ZM12.8332 16.4877C13.9186 17.2129 15.1946 17.6 16.5 17.6C18.2498 17.598 19.9274 16.902 21.1647 15.6647C22.402 14.4274 23.098 12.7498 23.1 11C23.1 9.69464 22.7129 8.4186 21.9877 7.33324C21.2625 6.24787 20.2317 5.40193 19.0257 4.9024C17.8197 4.40286 16.4927 4.27216 15.2124 4.52682C13.9321 4.78148 12.7561 5.41007 11.8331 6.3331C10.9101 7.25612 10.2815 8.43213 10.0268 9.7124C9.77216 10.9927 9.90286 12.3197 10.4024 13.5257C10.9019 14.7317 11.7479 15.7625 12.8332 16.4877ZM20.9 11C20.9 13.4301 18.9301 15.4 16.5 15.4C14.0699 15.4 12.1 13.4301 12.1 11C12.1 8.56998 14.0699 6.60003 16.5 6.60003C18.9301 6.60003 20.9 8.56998 20.9 11Z" fill="black"/>
</svg>
