<svg width="30" height="31" viewBox="0 0 30 31" fill="none" xmlns="http://www.w3.org/2000/svg">
    <g clip-path="url(#clip0)">
        <path d="M30 15.1728C30 6.88921 23.2836 0.172852 15 0.172852C6.71635 0.172852 0 6.88921 0 15.1728C0 22.6591 5.48446 28.865 12.6564 29.9914V19.5098H8.84686V15.1728H12.6564V11.8674C12.6564 8.10844 14.8966 6.03068 18.3223 6.03068C19.9634 6.03068 21.6805 6.32388 21.6805 6.32388V10.0153H19.7884C17.9257 10.0153 17.3436 11.1713 17.3436 12.3589V15.1728H21.5033L20.8388 19.5098H17.3436V29.9914C24.5155 28.8671 30 22.6612 30 15.1728Z"
              fill="#1977F3"/>
        <path d="M20.8388 19.5094L21.5033 15.1724H17.3436V12.3585C17.3436 11.173 17.9236 10.0149 19.7884 10.0149H21.6805V6.32348C21.6805 6.32348 19.9634 6.03027 18.3223 6.03027C14.8966 6.03027 12.6565 8.10593 12.6565 11.867V15.1724H8.84686V19.5094H12.6565V29.991C13.4201 30.1113 14.2027 30.1724 15 30.1724C15.7974 30.1724 16.58 30.1092 17.3436 29.991V19.5094H20.8388Z"
              fill="#FEFEFE"/>
    </g>
    <defs>
        <clipPath id="clip0">
            <rect width="30" height="30" fill="white" transform="translate(0 0.172852)"/>
        </clipPath>
    </defs>
</svg>
