<svg width="28" height="39" viewBox="0 0 28 39" fill="none" xmlns="http://www.w3.org/2000/svg">
<path d="M9.13336 39C8.92012 39.0002 8.70942 38.9527 8.51607 38.8608C8.32273 38.7689 8.15142 38.6349 8.0142 38.4682C7.87698 38.3015 7.77716 38.1061 7.72177 37.8958C7.66638 37.6855 7.65676 37.4653 7.69358 37.2508V37.2419L9.92962 24.701H1.2726C1.03231 24.7009 0.796934 24.6314 0.593699 24.5005C0.390463 24.3696 0.227673 24.1825 0.124156 23.9611C0.0206396 23.7396 -0.0193739 23.4927 0.00874462 23.2489C0.0368631 23.0052 0.131964 22.7746 0.283048 22.5837L17.7172 0.571366C17.9156 0.314084 18.1911 0.130268 18.5015 0.0480257C18.8119 -0.0342164 19.1402 -0.0103572 19.4361 0.115955C19.7319 0.242267 19.9792 0.464079 20.1399 0.747472C20.3007 1.03086 20.3662 1.36024 20.3263 1.68523C20.3263 1.7096 20.3199 1.73316 20.316 1.75754L18.072 14.3017H26.7274C26.9677 14.3017 27.2031 14.3712 27.4063 14.5022C27.6095 14.6331 27.7723 14.8201 27.8758 15.0416C27.9794 15.2631 28.0194 15.51 27.9913 15.7537C27.9631 15.9974 27.868 16.2281 27.717 16.4189L10.2804 38.4313C10.1434 38.6081 9.96912 38.7511 9.77052 38.8495C9.57192 38.948 9.35413 38.9994 9.13336 39V39Z" fill="black"/>
</svg>
