<svg width="89" height="89" viewBox="0 0 89 89" fill="none" xmlns="http://www.w3.org/2000/svg">
<rect width="89" height="89" rx="44.5" fill="#DDECE2"/>
<g filter="url(#filter0_b)">
<circle cx="44.5" cy="44.5" r="31.5" fill="url(#paint0_linear)"/>
</g>
<g filter="url(#filter1_bdd)">

    <path d="M39.1334 64C38.9201 64.0002 38.7094 63.9527 38.5161 63.8608C38.3227 63.7689 38.1514 63.6349 38.0142 63.4682C37.877 63.3015 37.7772 63.1061 37.7218 62.8958C37.6664 62.6855 37.6568 62.4653 37.6936 62.2508V62.2419L39.9296 49.701H31.2726C31.0323 49.7009 30.7969 49.6314 30.5937 49.5005C30.3905 49.3696 30.2277 49.1825 30.1242 48.9611C30.0206 48.7396 29.9806 48.4927 30.0087 48.2489C30.0369 48.0052 30.132 47.7746 30.283 47.5837L47.7172 25.5714C47.9156 25.3141 48.1911 25.1303 48.5015 25.048C48.8119 24.9658 49.1402 24.9896 49.4361 25.116C49.7319 25.2423 49.9792 25.4641 50.1399 25.7475C50.3007 26.0309 50.3662 26.3602 50.3263 26.6852C50.3263 26.7096 50.3199 26.7332 50.316 26.7575L48.072 39.3017H56.7274C56.9677 39.3017 57.2031 39.3712 57.4063 39.5022C57.6095 39.6331 57.7723 39.8201 57.8758 40.0416C57.9794 40.2631 58.0194 40.51 57.9913 40.7537C57.9631 40.9974 57.868 41.2281 57.717 41.4189L40.2804 63.4313C40.1434 63.6081 39.9691 63.7511 39.7705 63.8495C39.5719 63.948 39.3541 63.9994 39.1334 64V64Z" fill="url(#paint1_linear)"/>

</g>
<defs>
<filter id="filter0_b" x="-11" y="-11" width="111" height="111" filterUnits="userSpaceOnUse" color-interpolation-filters="sRGB">
<feFlood flood-opacity="0" result="BackgroundImageFix"/>
<feGaussianBlur in="BackgroundImage" stdDeviation="12"/>
<feComposite in2="SourceAlpha" operator="in" result="effect1_backgroundBlur"/>
<feBlend mode="normal" in="SourceGraphic" in2="effect1_backgroundBlur" result="shape"/>
</filter>
<filter id="filter1_bdd" x="15" y="10" width="58" height="69" filterUnits="userSpaceOnUse" color-interpolation-filters="sRGB">
<feFlood flood-opacity="0" result="BackgroundImageFix"/>
<feGaussianBlur in="BackgroundImage" stdDeviation="7.5"/>
<feComposite in2="SourceAlpha" operator="in" result="effect1_backgroundBlur"/>
<feColorMatrix in="SourceAlpha" type="matrix" values="0 0 0 0 0 0 0 0 0 0 0 0 0 0 0 0 0 0 127 0"/>
<feOffset dx="5" dy="5"/>
<feGaussianBlur stdDeviation="5"/>
<feColorMatrix type="matrix" values="0 0 0 0 0.15375 0 0 0 0 0.522433 0 0 0 0 0.9 0 0 0 0.5 0"/>
<feBlend mode="normal" in2="effect1_backgroundBlur" result="effect2_dropShadow"/>
<feColorMatrix in="SourceAlpha" type="matrix" values="0 0 0 0 0 0 0 0 0 0 0 0 0 0 0 0 0 0 127 0"/>
<feOffset dx="5" dy="5"/>
<feGaussianBlur stdDeviation="5"/>
<feColorMatrix type="matrix" values="0 0 0 0 0.454902 0 0 0 0 0.870588 0 0 0 0 0.376471 0 0 0 0.5 0"/>
<feBlend mode="normal" in2="effect2_dropShadow" result="effect3_dropShadow"/>
<feBlend mode="normal" in="SourceGraphic" in2="effect3_dropShadow" result="shape"/>
</filter>
<linearGradient id="paint0_linear" x1="76" y1="13" x2="31.5792" y2="64.9523" gradientUnits="userSpaceOnUse">
<stop stop-color="#9BF763"/>
<stop offset="1" stop-color="#26AB5B"/>
</linearGradient>
<linearGradient id="paint1_linear" x1="56.0148" y1="32.0426" x2="24.8094" y2="32.7731" gradientUnits="userSpaceOnUse">
<stop stop-color="white"/>
<stop offset="1" stop-color="white" stop-opacity="0.2"/>
</linearGradient>
</defs>
</svg>
