<svg width="38" height="38" viewBox="0 0 38 38" fill="none" xmlns="http://www.w3.org/2000/svg">
<g clip-path="url(#clip0)">
<path d="M19 38C29.4934 38 38 29.4934 38 19C38 8.50659 29.4934 0 19 0C8.50659 0 0 8.50659 0 19C0 29.4934 8.50659 38 19 38Z" fill="#F0F0F0"/>
<path d="M38 19C38 10.8307 32.8439 3.86634 25.6086 1.18178V36.8183C32.8439 34.1336 38 27.1693 38 19V19Z" fill="#D80027"/>
<path d="M0 19C0 27.1693 5.1562 34.1336 12.3913 36.8182V1.18178C5.1562 3.86634 0 10.8307 0 19Z" fill="#0052B4"/>
</g>
<defs>
<clipPath id="clip0">
<rect width="38" height="38" fill="white"/>
</clipPath>
</defs>
</svg>
