<svg width="89" height="89" viewBox="0 0 89 89" fill="none" xmlns="http://www.w3.org/2000/svg">
<rect width="89" height="89" rx="44.5" fill="#F4E6DB"/>
<g filter="url(#filter0_b)">
<circle cx="44.5" cy="44.5" r="31.5" fill="url(#paint0_linear)"/>
<circle cx="44.5" cy="44.5" r="32" stroke="url(#paint1_linear)" stroke-linecap="round" stroke-linejoin="round"/>
</g>
<g filter="url(#filter1_bd)">
<path d="M44.5 39.7826C43.4757 39.7826 42.4744 40.0886 41.6227 40.6619C40.771 41.2352 40.1072 42.05 39.7152 43.0034C39.3232 43.9567 39.2207 45.0058 39.4205 46.0179C39.6203 47.0299 40.1136 47.9596 40.8379 48.6893C41.5622 49.4189 42.485 49.9158 43.4896 50.1171C44.4943 50.3185 45.5356 50.2151 46.4819 49.8202C47.4283 49.4253 48.2371 48.7566 48.8062 47.8986C49.3753 47.0406 49.679 46.0319 49.679 45C49.6749 43.6175 49.128 42.2929 48.1576 41.3153C47.1872 40.3378 45.8723 39.7867 44.5 39.7826V39.7826ZM55.6815 45C55.6788 45.4875 55.6433 45.9743 55.5753 46.457L58.7274 48.943C58.8647 49.0572 58.9572 49.2169 58.9884 49.3935C59.0196 49.5701 58.9874 49.7521 58.8977 49.907L55.9159 55.093C55.8252 55.2466 55.6837 55.363 55.5163 55.4218C55.3489 55.4806 55.1662 55.478 55.0005 55.4146L51.2942 53.9146C50.5225 54.5133 49.6779 55.0101 48.7811 55.393L48.227 59.357C48.1959 59.5345 48.1047 59.6957 47.9688 59.813C47.8329 59.9303 47.6607 59.9964 47.4818 60H41.5182C41.3425 59.9966 41.1732 59.9332 41.0379 59.8203C40.9025 59.7075 40.8092 59.5517 40.773 59.3785L40.2189 55.4146C39.3196 55.0361 38.4744 54.5384 37.7058 53.9348L33.9995 55.4348C33.8339 55.4983 33.6513 55.501 33.4838 55.4423C33.3164 55.3836 33.1749 55.2673 33.0841 55.1139L30.1023 49.9285C30.0126 49.7736 29.9804 49.5916 30.0116 49.415C30.0428 49.2384 30.1353 49.0788 30.2726 48.9646L33.4247 46.4785C33.3574 45.9885 33.322 45.4946 33.3185 45C33.3212 44.5125 33.3567 44.0257 33.4247 43.543L30.2726 41.057C30.1353 40.9428 30.0428 40.7831 30.0116 40.6065C29.9804 40.4299 30.0126 40.2479 30.1023 40.093L33.0841 34.907C33.1748 34.7534 33.3163 34.637 33.4837 34.5782C33.6511 34.5194 33.8338 34.522 33.9995 34.5854L37.7058 36.0854C38.4775 35.4867 39.3221 34.9899 40.2189 34.607L40.773 30.643C40.8041 30.4655 40.8953 30.3043 41.0312 30.187C41.1671 30.0697 41.3393 30.0036 41.5182 30H47.4818C47.6575 30.0034 47.8268 30.0668 47.9621 30.1797C48.0975 30.2925 48.1908 30.4483 48.227 30.6215L48.7811 34.5854C49.6815 34.9637 50.5278 35.4613 51.2975 36.0652L55.0005 34.5652C55.1661 34.5017 55.3487 34.499 55.5162 34.5577C55.6836 34.6164 55.8251 34.7327 55.9159 34.8861L58.8977 40.0722C58.9874 40.2271 59.0196 40.4091 58.9884 40.5857C58.9572 40.7622 58.8647 40.9219 58.7274 41.0361L55.5753 43.5222C55.6425 44.0119 55.678 44.5056 55.6815 45V45Z" fill="url(#paint2_linear)"/>
</g>
<defs>
<filter id="filter0_b" x="-12" y="-12" width="113" height="113" filterUnits="userSpaceOnUse" color-interpolation-filters="sRGB">
<feFlood flood-opacity="0" result="BackgroundImageFix"/>
<feGaussianBlur in="BackgroundImage" stdDeviation="12"/>
<feComposite in2="SourceAlpha" operator="in" result="effect1_backgroundBlur"/>
<feBlend mode="normal" in="SourceGraphic" in2="effect1_backgroundBlur" result="shape"/>
</filter>
<filter id="filter1_bd" x="15" y="15" width="59" height="60" filterUnits="userSpaceOnUse" color-interpolation-filters="sRGB">
<feFlood flood-opacity="0" result="BackgroundImageFix"/>
<feGaussianBlur in="BackgroundImage" stdDeviation="7.5"/>
<feComposite in2="SourceAlpha" operator="in" result="effect1_backgroundBlur"/>
<feColorMatrix in="SourceAlpha" type="matrix" values="0 0 0 0 0 0 0 0 0 0 0 0 0 0 0 0 0 0 127 0"/>
<feOffset dx="5" dy="5"/>
<feGaussianBlur stdDeviation="5"/>
<feColorMatrix type="matrix" values="0 0 0 0 1 0 0 0 0 0.52549 0 0 0 0 0.137255 0 0 0 0.5 0"/>
<feBlend mode="normal" in2="effect1_backgroundBlur" result="effect2_dropShadow"/>
<feBlend mode="normal" in="SourceGraphic" in2="effect2_dropShadow" result="shape"/>
</filter>
<linearGradient id="paint0_linear" x1="44.5" y1="13" x2="44.5" y2="76" gradientUnits="userSpaceOnUse">
<stop stop-color="#FFB37F"/>
<stop offset="1" stop-color="#FF7B0D"/>
</linearGradient>
<linearGradient id="paint1_linear" x1="23.0286" y1="20.3396" x2="63.2159" y2="70.1125" gradientUnits="userSpaceOnUse">
<stop stop-color="white" stop-opacity="0.25"/>
<stop offset="1" stop-color="white" stop-opacity="0"/>
</linearGradient>
<linearGradient id="paint2_linear" x1="56.9439" y1="35.4174" x2="24.6384" y2="36.4356" gradientUnits="userSpaceOnUse">
<stop stop-color="white"/>
<stop offset="1" stop-color="white" stop-opacity="0.2"/>
</linearGradient>
</defs>
</svg>
