<svg width="38" height="38" viewBox="0 0 38 38" fill="none" xmlns="http://www.w3.org/2000/svg">
<path d="M1.18176 25.6087C3.86633 32.8438 10.8306 38 19 38C27.1693 38 34.1336 32.8438 36.8182 25.6087L19 23.9566L1.18176 25.6087Z" fill="#FFDA44"/>
<path d="M19 0C10.8306 0 3.86633 5.15613 1.18176 12.3913L19 14.0434L36.8182 12.3913C34.1336 5.15612 27.1693 0 19 0Z" fill="black"/>
<path d="M1.18179 12.3913C0.418074 14.4497 0 16.6759 0 19C0 21.3241 0.418074 23.5504 1.18179 25.6087H36.8183C37.582 23.5504 38 21.3241 38 19C38 16.6759 37.582 14.4497 36.8182 12.3913H1.18179Z" fill="#D80027"/>
</svg>
