<svg width="35" height="32" viewBox="0 0 35 32" fill="none" xmlns="http://www.w3.org/2000/svg">
<path d="M17.5 32C16.9596 31.9993 16.432 31.8376 15.9857 31.5358C9.37387 27.09 6.51092 24.0417 4.9318 22.1358C1.5666 18.0733 -0.0444961 13.9025 0.000934195 9.38583C0.0539362 4.21 4.24614 0 9.34611 0C13.0546 0 15.6231 2.06917 17.1189 3.7925C17.1663 3.84654 17.2248 3.88988 17.2906 3.91957C17.3563 3.94927 17.4277 3.96464 17.5 3.96464C17.5723 3.96464 17.6437 3.94927 17.7094 3.91957C17.7752 3.88988 17.8337 3.84654 17.8811 3.7925C19.3769 2.0675 21.9454 0 25.6539 0C30.7539 0 34.9461 4.21 34.9991 9.38667C35.0445 13.9042 33.4317 18.075 30.0682 22.1367C28.4891 24.0425 25.6261 27.0908 19.0143 31.5367C18.5679 31.8381 18.0403 31.9996 17.5 32V32Z" fill="black"/>
</svg>
