<svg width="90" height="90" viewBox="0 0 90 90" fill="none" xmlns="http://www.w3.org/2000/svg">
<g filter="url(#filter0_b)">
<circle cx="45.5" cy="44.5" r="31.5" fill="url(#paint0_linear)"/>
<circle cx="45.5" cy="44.5" r="32" stroke="url(#paint1_linear)" stroke-linecap="round" stroke-linejoin="round"/>
</g>
<g filter="url(#filter1_b)">
<g filter="url(#filter2_b)">
<rect width="90" height="90" rx="45" fill="white" fill-opacity="0.05"/>
<rect width="90" height="90" rx="45" fill="url(#paint2_linear)"/>
</g>
</g>
<path d="M38.91 58.7449C38.4748 58.7441 38.0473 58.63 37.6696 58.4139C36.819 57.9319 36.2903 56.9963 36.2903 55.9806V35.4256C36.2903 34.407 36.819 33.4742 37.6696 32.9923C38.0563 32.77 38.4956 32.6557 38.9416 32.6613C39.3876 32.6669 39.824 32.7923 40.205 33.0242L57.7725 43.5398C58.1386 43.7694 58.4404 44.0882 58.6496 44.4663C58.8588 44.8445 58.9686 45.2695 58.9686 45.7017C58.9686 46.1338 58.8588 46.5589 58.6496 46.937C58.4404 47.3151 58.1386 47.6339 57.7725 47.8635L40.2021 58.382C39.8122 58.6177 39.3656 58.7432 38.91 58.7449Z" fill="white"/>
<g filter="url(#filter3_b)">
<circle cx="45.5" cy="44.5" r="31.5" fill="#FF749F" fill-opacity="0.35"/>
</g>
<g filter="url(#filter4_bd)">

</g>
<defs>
<filter id="filter0_b" x="-11" y="-12" width="113" height="113" filterUnits="userSpaceOnUse" color-interpolation-filters="sRGB">
<feFlood flood-opacity="0" result="BackgroundImageFix"/>
<feGaussianBlur in="BackgroundImage" stdDeviation="12"/>
<feComposite in2="SourceAlpha" operator="in" result="effect1_backgroundBlur"/>
<feBlend mode="normal" in="SourceGraphic" in2="effect1_backgroundBlur" result="shape"/>
</filter>
<filter id="filter1_b" x="-25" y="-25" width="140" height="140" filterUnits="userSpaceOnUse" color-interpolation-filters="sRGB">
<feFlood flood-opacity="0" result="BackgroundImageFix"/>
<feGaussianBlur in="BackgroundImage" stdDeviation="12.5"/>
<feComposite in2="SourceAlpha" operator="in" result="effect1_backgroundBlur"/>
<feBlend mode="normal" in="SourceGraphic" in2="effect1_backgroundBlur" result="shape"/>
</filter>
<filter id="filter2_b" x="-25" y="-25" width="140" height="140" filterUnits="userSpaceOnUse" color-interpolation-filters="sRGB">
<feFlood flood-opacity="0" result="BackgroundImageFix"/>
<feGaussianBlur in="BackgroundImage" stdDeviation="12.5"/>
<feComposite in2="SourceAlpha" operator="in" result="effect1_backgroundBlur"/>
<feBlend mode="normal" in="SourceGraphic" in2="effect1_backgroundBlur" result="shape"/>
</filter>
<filter id="filter3_b" x="-10" y="-11" width="111" height="111" filterUnits="userSpaceOnUse" color-interpolation-filters="sRGB">
<feFlood flood-opacity="0" result="BackgroundImageFix"/>
<feGaussianBlur in="BackgroundImage" stdDeviation="12"/>
<feComposite in2="SourceAlpha" operator="in" result="effect1_backgroundBlur"/>
<feBlend mode="normal" in="SourceGraphic" in2="effect1_backgroundBlur" result="shape"/>
</filter>
<filter id="filter4_bd" x="13" y="14" width="65" height="62" filterUnits="userSpaceOnUse" color-interpolation-filters="sRGB">
<feFlood flood-opacity="0" result="BackgroundImageFix"/>
<feGaussianBlur in="BackgroundImage" stdDeviation="7.5"/>
<feComposite in2="SourceAlpha" operator="in" result="effect1_backgroundBlur"/>
<feColorMatrix in="SourceAlpha" type="matrix" values="0 0 0 0 0 0 0 0 0 0 0 0 0 0 0 0 0 0 127 0"/>
<feOffset dx="5" dy="5"/>
<feGaussianBlur stdDeviation="5"/>
<feColorMatrix type="matrix" values="0 0 0 0 1 0 0 0 0 0.321569 0 0 0 0 0.54902 0 0 0 0.5 0"/>
<feBlend mode="normal" in2="effect1_backgroundBlur" result="effect2_dropShadow"/>
<feBlend mode="normal" in="SourceGraphic" in2="effect2_dropShadow" result="shape"/>
</filter>
<linearGradient id="paint0_linear" x1="50.138" y1="48.7187" x2="-5.21941" y2="75.6348" gradientUnits="userSpaceOnUse">
<stop stop-color="#FF759F"/>
<stop offset="1" stop-color="#FF196E"/>
</linearGradient>
<linearGradient id="paint1_linear" x1="24.0286" y1="20.3396" x2="64.2159" y2="70.1125" gradientUnits="userSpaceOnUse">
<stop stop-color="white" stop-opacity="0.25"/>
<stop offset="1" stop-color="white" stop-opacity="0"/>
</linearGradient>
<linearGradient id="paint2_linear" x1="66.4113" y1="5.44355" x2="45" y2="90" gradientUnits="userSpaceOnUse">
<stop stop-color="white" stop-opacity="0.59"/>
<stop offset="1" stop-color="white" stop-opacity="0"/>
</linearGradient>
<linearGradient id="paint3_linear" x1="56.6428" y1="38.1857" x2="27.732" y2="39.3331" gradientUnits="userSpaceOnUse">
<stop stop-color="white"/>
<stop offset="1" stop-color="white" stop-opacity="0.2"/>
</linearGradient>
</defs>
</svg>
