<svg width="30" height="31" viewBox="0 0 30 31" fill="none" xmlns="http://www.w3.org/2000/svg">
<g clip-path="url(#clip0)">
<path d="M10.0008 15.1729C10.0008 12.4115 12.2387 10.1725 15 10.1725C17.7613 10.1725 20.0004 12.4115 20.0004 15.1729C20.0004 17.9342 17.7613 20.1733 15 20.1733C12.2387 20.1733 10.0008 17.9342 10.0008 15.1729ZM7.29768 15.1729C7.29768 19.4269 10.746 22.8752 15 22.8752C19.254 22.8752 22.7023 19.4269 22.7023 15.1729C22.7023 10.9189 19.254 7.47053 15 7.47053C10.746 7.47053 7.29768 10.9189 7.29768 15.1729ZM21.2072 7.16513C21.2071 7.52114 21.3125 7.86919 21.5102 8.16528C21.7079 8.46137 21.9889 8.69219 22.3177 8.82856C22.6466 8.96493 23.0085 9.00072 23.3577 8.93141C23.7069 8.86209 24.0277 8.69079 24.2795 8.43915C24.5314 8.18752 24.7029 7.86686 24.7725 7.51772C24.8421 7.16858 24.8066 6.80665 24.6705 6.47769C24.5344 6.14873 24.3038 5.86751 24.0079 5.66961C23.7119 5.4717 23.364 5.36599 23.008 5.36585H23.0072C22.53 5.36607 22.0724 5.55569 21.7349 5.89305C21.3975 6.23041 21.2077 6.68793 21.2072 7.16513ZM8.94 27.3825C7.47756 27.3159 6.68268 27.0723 6.15444 26.8665C5.45412 26.5939 4.95444 26.2691 4.42908 25.7445C3.90372 25.2199 3.57852 24.7207 3.30708 24.0203C3.10116 23.4923 2.85756 22.6972 2.79108 21.2348C2.71836 19.6537 2.70384 19.1787 2.70384 15.173C2.70384 11.1673 2.71956 10.6936 2.79108 9.11117C2.85768 7.64873 3.10308 6.85517 3.30708 6.32561C3.57972 5.62529 3.90444 5.12561 4.42908 4.60025C4.95372 4.07489 5.45292 3.74969 6.15444 3.47825C6.68244 3.27233 7.47756 3.02873 8.94 2.96225C10.5211 2.88953 10.9961 2.87501 15 2.87501C19.0039 2.87501 19.4794 2.89073 21.0618 2.96225C22.5242 3.02885 23.3178 3.27425 23.8474 3.47825C24.5477 3.74969 25.0474 4.07561 25.5727 4.60025C26.0981 5.12489 26.4221 5.62529 26.6947 6.32561C26.9006 6.85361 27.1442 7.64873 27.2107 9.11117C27.2834 10.6936 27.298 11.1673 27.298 15.173C27.298 19.1787 27.2834 19.6523 27.2107 21.2348C27.1441 22.6972 26.8993 23.4921 26.6947 24.0203C26.4221 24.7207 26.0974 25.2203 25.5727 25.7445C25.0481 26.2687 24.5477 26.5939 23.8474 26.8665C23.3194 27.0724 22.5242 27.316 21.0618 27.3825C19.4807 27.4552 19.0057 27.4697 15 27.4697C10.9943 27.4697 10.5206 27.4552 8.94 27.3825ZM8.8158 0.263692C7.21896 0.336412 6.1278 0.589612 5.17488 0.960412C4.188 1.34333 3.35256 1.85705 2.51772 2.69057C1.68288 3.52409 1.17048 4.36085 0.78756 5.34773C0.41676 6.30125 0.16356 7.39181 0.09084 8.98865C0.01692 10.588 0 11.0993 0 15.1729C0 19.2464 0.01692 19.7577 0.09084 21.3571C0.16356 22.954 0.41676 24.0445 0.78756 24.998C1.17048 25.9843 1.683 26.822 2.51772 27.6551C3.35244 28.4883 4.188 29.0013 5.17488 29.3853C6.1296 29.7561 7.21896 30.0093 8.8158 30.082C10.416 30.1547 10.9265 30.1729 15 30.1729C19.0735 30.1729 19.5848 30.1559 21.1842 30.082C22.7812 30.0093 23.8716 29.7561 24.8251 29.3853C25.8114 29.0013 26.6474 28.4887 27.4823 27.6551C28.3171 26.8216 28.8284 25.9843 29.2124 24.998C29.5832 24.0445 29.8376 22.9539 29.9092 21.3571C29.9819 19.7565 29.9988 19.2464 29.9988 15.1729C29.9988 11.0993 29.9819 10.588 29.9092 8.98865C29.8364 7.39169 29.5832 6.30065 29.2124 5.34773C28.8284 4.36145 28.3158 3.52541 27.4823 2.69057C26.6488 1.85573 25.8114 1.34333 24.8263 0.960412C23.8716 0.589612 22.781 0.335212 21.1854 0.263692C19.586 0.190972 19.0747 0.172852 15.0012 0.172852C10.9277 0.172852 10.416 0.189772 8.8158 0.263692Z" fill="url(#paint0_radial)"/>
<path d="M10.0008 15.1729C10.0008 12.4115 12.2387 10.1725 15 10.1725C17.7613 10.1725 20.0004 12.4115 20.0004 15.1729C20.0004 17.9342 17.7613 20.1733 15 20.1733C12.2387 20.1733 10.0008 17.9342 10.0008 15.1729ZM7.29768 15.1729C7.29768 19.4269 10.746 22.8752 15 22.8752C19.254 22.8752 22.7023 19.4269 22.7023 15.1729C22.7023 10.9189 19.254 7.47053 15 7.47053C10.746 7.47053 7.29768 10.9189 7.29768 15.1729ZM21.2072 7.16513C21.2071 7.52114 21.3125 7.86919 21.5102 8.16528C21.7079 8.46137 21.9889 8.69219 22.3177 8.82856C22.6466 8.96493 23.0085 9.00072 23.3577 8.93141C23.7069 8.86209 24.0277 8.69079 24.2795 8.43915C24.5314 8.18752 24.7029 7.86686 24.7725 7.51772C24.8421 7.16858 24.8066 6.80665 24.6705 6.47769C24.5344 6.14873 24.3038 5.86751 24.0079 5.66961C23.7119 5.4717 23.364 5.36599 23.008 5.36585H23.0072C22.53 5.36607 22.0724 5.55569 21.7349 5.89305C21.3975 6.23041 21.2077 6.68793 21.2072 7.16513ZM8.94 27.3825C7.47756 27.3159 6.68268 27.0723 6.15444 26.8665C5.45412 26.5939 4.95444 26.2691 4.42908 25.7445C3.90372 25.2199 3.57852 24.7207 3.30708 24.0203C3.10116 23.4923 2.85756 22.6972 2.79108 21.2348C2.71836 19.6537 2.70384 19.1787 2.70384 15.173C2.70384 11.1673 2.71956 10.6936 2.79108 9.11117C2.85768 7.64873 3.10308 6.85517 3.30708 6.32561C3.57972 5.62529 3.90444 5.12561 4.42908 4.60025C4.95372 4.07489 5.45292 3.74969 6.15444 3.47825C6.68244 3.27233 7.47756 3.02873 8.94 2.96225C10.5211 2.88953 10.9961 2.87501 15 2.87501C19.0039 2.87501 19.4794 2.89073 21.0618 2.96225C22.5242 3.02885 23.3178 3.27425 23.8474 3.47825C24.5477 3.74969 25.0474 4.07561 25.5727 4.60025C26.0981 5.12489 26.4221 5.62529 26.6947 6.32561C26.9006 6.85361 27.1442 7.64873 27.2107 9.11117C27.2834 10.6936 27.298 11.1673 27.298 15.173C27.298 19.1787 27.2834 19.6523 27.2107 21.2348C27.1441 22.6972 26.8993 23.4921 26.6947 24.0203C26.4221 24.7207 26.0974 25.2203 25.5727 25.7445C25.0481 26.2687 24.5477 26.5939 23.8474 26.8665C23.3194 27.0724 22.5242 27.316 21.0618 27.3825C19.4807 27.4552 19.0057 27.4697 15 27.4697C10.9943 27.4697 10.5206 27.4552 8.94 27.3825ZM8.8158 0.263692C7.21896 0.336412 6.1278 0.589612 5.17488 0.960412C4.188 1.34333 3.35256 1.85705 2.51772 2.69057C1.68288 3.52409 1.17048 4.36085 0.78756 5.34773C0.41676 6.30125 0.16356 7.39181 0.09084 8.98865C0.01692 10.588 0 11.0993 0 15.1729C0 19.2464 0.01692 19.7577 0.09084 21.3571C0.16356 22.954 0.41676 24.0445 0.78756 24.998C1.17048 25.9843 1.683 26.822 2.51772 27.6551C3.35244 28.4883 4.188 29.0013 5.17488 29.3853C6.1296 29.7561 7.21896 30.0093 8.8158 30.082C10.416 30.1547 10.9265 30.1729 15 30.1729C19.0735 30.1729 19.5848 30.1559 21.1842 30.082C22.7812 30.0093 23.8716 29.7561 24.8251 29.3853C25.8114 29.0013 26.6474 28.4887 27.4823 27.6551C28.3171 26.8216 28.8284 25.9843 29.2124 24.998C29.5832 24.0445 29.8376 22.9539 29.9092 21.3571C29.9819 19.7565 29.9988 19.2464 29.9988 15.1729C29.9988 11.0993 29.9819 10.588 29.9092 8.98865C29.8364 7.39169 29.5832 6.30065 29.2124 5.34773C28.8284 4.36145 28.3158 3.52541 27.4823 2.69057C26.6488 1.85573 25.8114 1.34333 24.8263 0.960412C23.8716 0.589612 22.781 0.335212 21.1854 0.263692C19.586 0.190972 19.0747 0.172852 15.0012 0.172852C10.9277 0.172852 10.416 0.189772 8.8158 0.263692Z" fill="url(#paint1_radial)"/>
</g>
<defs>
<radialGradient id="paint0_radial" cx="0" cy="0" r="1" gradientUnits="userSpaceOnUse" gradientTransform="translate(3.98568 30.3146) scale(39.1625)">
<stop offset="0.09" stop-color="#FA8F21"/>
<stop offset="0.78" stop-color="#D82D7E"/>
</radialGradient>
<radialGradient id="paint1_radial" cx="0" cy="0" r="1" gradientUnits="userSpaceOnUse" gradientTransform="translate(18.1937 31.6586) scale(30.8654)">
<stop offset="0.64" stop-color="#8C3AAA" stop-opacity="0"/>
<stop offset="1" stop-color="#8C3AAA"/>
</radialGradient>
<clipPath id="clip0">
<rect width="30" height="30" fill="white" transform="translate(0 0.172852)"/>
</clipPath>
</defs>
</svg>
