<svg width="208" height="37" viewBox="0 0 208 37" fill="none" xmlns="http://www.w3.org/2000/svg">
<path fill-rule="evenodd" clip-rule="evenodd" d="M0 22.0603C0 25.2695 2.9621 27.5359 6.78272 27.5359C11.3148 27.5359 13.4469 24.6529 13.4469 22.165C13.4469 18.1868 9.53613 17.2917 7.19775 16.7441C4.4728 16.0942 2.87198 15.5228 2.87198 13.5087C2.87198 11.866 3.93682 10.1519 6.63094 10.1519C9.95115 10.1519 10.6626 12.2945 10.7195 13.4587H12.9109C12.8516 11.0208 10.9567 8.48535 6.89893 8.48535C2.36684 8.48535 0.680644 11.4184 0.680644 13.4849C0.680644 17.7131 5.50681 17.8869 8.31951 18.8058C9.26814 19.1058 11.2532 19.901 11.2532 22.1388C11.2532 24.1029 9.62388 25.8671 6.72106 25.8671C2.63483 25.8671 2.24826 22.8102 2.18897 22.0579L0 22.0603Z" fill="#474747"/>
<path fill-rule="evenodd" clip-rule="evenodd" d="M18.235 27.4121H20.2698V19.8509H24.6691C29.8107 19.8509 31.6795 17.0273 31.6795 14.2276C31.6795 12.0849 30.636 8.57812 24.6691 8.57812H18.235V27.4121ZM20.2698 10.2827H24.6904C28.3189 10.2827 29.6399 12.2159 29.6399 14.2276C29.6399 16.1869 28.3189 18.1463 24.6904 18.1463H20.2698V10.2827Z" fill="#474747"/>
<path fill-rule="evenodd" clip-rule="evenodd" d="M33.0266 27.4267H34.7483L37.0535 21.1154H44.46L46.7651 27.4267H48.4869L41.6615 8.59277H39.8947L33.0171 27.4267H33.0266ZM37.6772 19.4084L40.7793 10.7807L43.8362 19.4084H37.6772Z" fill="#474747"/>
<path fill-rule="evenodd" clip-rule="evenodd" d="M66.964 13.4701C65.6478 10.3108 62.9916 8.48242 59.7212 8.48242C55.1772 8.48242 51.5653 12.4582 51.5653 17.8911C51.5653 23.4691 55.2413 27.3949 59.8492 27.3949C62.9323 27.3949 65.5624 25.4904 67.028 22.3097H65.1592C63.8857 24.6785 61.7607 25.7403 59.8492 25.7403C56.1116 25.7403 53.1377 22.3835 53.1377 17.8839C53.1377 13.7105 55.7915 10.1299 59.7425 10.1299C63.1196 10.1299 64.6707 12.6987 65.0952 13.4629L66.964 13.4701Z" fill="#474747"/>
<path d="M59.8491 27.4819C55.0799 27.4819 51.4822 23.3585 51.4822 17.8924C51.4822 12.481 55.0253 8.40039 59.721 8.40039C63.0413 8.40039 65.7069 10.2359 67.0421 13.4404L67.0896 13.5571H65.0453L65.0215 13.5142C64.3385 12.2834 62.7472 10.224 59.7424 10.224C56.0261 10.224 53.2205 13.519 53.2205 17.8924C53.2205 22.2658 56.1328 25.6654 59.8491 25.6654C61.9835 25.6654 63.9448 24.3989 65.0856 22.2777L65.1093 22.2324H67.1583L67.1038 22.3538C65.6026 25.6107 62.9583 27.4819 59.8491 27.4819ZM59.721 8.56942C55.1202 8.56942 51.6577 12.5762 51.6577 17.8924C51.6577 23.2633 55.1818 27.3129 59.8562 27.3129C62.8587 27.3129 65.42 25.5226 66.9022 22.3943H65.216C64.0302 24.537 62.0428 25.8273 59.8562 25.8273C56.0451 25.8273 53.0617 22.3419 53.0617 17.8924C53.0617 13.4428 55.936 10.055 59.7495 10.055C62.8041 10.055 64.4381 12.1215 65.152 13.388H66.8429C65.5148 10.324 62.9274 8.56942 59.721 8.56942Z" fill="#474747"/>
<path fill-rule="evenodd" clip-rule="evenodd" d="M71.7451 27.4511H85.2346V25.737H74.2044V18.7781H84.8694V17.064H74.2044V10.2337H85.2346V8.51953H71.7451V27.4511Z" fill="#474747"/>
<path fill-rule="evenodd" clip-rule="evenodd" d="M107.378 0.00488281L104.414 1.90947L107.385 3.50693V0.0120247L107.378 0.00488281ZM102.763 2.95699L107.388 5.44485L107.411 16.6581L99.521 11.7776L99.5732 4.99966L102.763 2.95699ZM99.0325 13.4846L92.5486 16.27V19.6245L99.0183 22.648L106.595 18.1627L99.0301 13.4846H99.0325ZM99.5495 24.3264L107.418 19.6673L107.44 29.8164L102.791 33.2375L99.5139 31.2805L99.5495 24.3264ZM104.376 34.185L107.459 36.0182V31.9305L104.376 34.185ZM97.2277 23.7098L92.5533 26.4786V21.5219L97.2325 23.7098H97.2277ZM93.6703 27.8023L97.8372 30.2901L97.8633 25.3216L93.6822 27.807L93.6703 27.8023ZM97.8823 6.07574L94.1494 8.45647L97.8467 10.742L97.8823 6.06622V6.07574ZM92.5652 9.47543L97.2609 12.3799L92.5581 14.4035V9.49924L92.5652 9.47543Z" fill="#B3B3B3"/>
<path fill-rule="evenodd" clip-rule="evenodd" d="M109.204 0L109.214 13.1892L115.539 17.4008L124.091 12.3108L124.1 9.54435L109.204 0Z" fill="url(#paint0_linear)"/>
<path fill-rule="evenodd" clip-rule="evenodd" d="M124.126 14.6367L109.242 23.4311V36.1728L124.11 28.2116L124.126 14.6367Z" fill="url(#paint1_linear)"/>
<path fill-rule="evenodd" clip-rule="evenodd" d="M145.838 13.642C144.519 10.4852 141.865 8.65918 138.595 8.65918C134.049 8.65918 130.439 12.6302 130.439 18.0583C130.439 23.634 134.113 27.555 138.721 27.555C141.804 27.555 144.436 25.6504 145.9 22.4746H144.031C142.757 24.841 140.632 25.9028 138.721 25.9028C134.983 25.9028 132.009 22.5484 132.009 18.0583C132.009 13.8896 134.665 10.3114 138.616 10.3114C141.994 10.3114 143.542 12.8778 143.969 13.6444L145.838 13.642Z" fill="#275FA1"/>
<path fill-rule="evenodd" clip-rule="evenodd" d="M148.995 27.4544H150.719L153.021 21.1217H160.43L162.736 27.4544H164.457L157.629 8.55859H155.865L148.987 27.4544H148.995ZM153.648 19.41L156.747 10.7536L159.807 19.41H153.648Z" fill="#275FA1"/>
<path fill-rule="evenodd" clip-rule="evenodd" d="M169.072 27.5217H174.878C181.801 27.5217 182.517 23.6268 182.517 22.1317C182.517 20.1462 181.459 17.9797 178.827 17.2845C179.941 16.6655 181.371 15.5299 181.371 13.4754C181.371 8.68058 176.567 8.44727 174.363 8.44727H169.072V27.5217ZM171.188 25.7933V18.3416H174.878C176.967 18.3416 180.371 18.6773 180.371 22.1507C180.371 25.4838 176.854 25.7861 174.878 25.7861L171.188 25.7933ZM171.188 16.6132V10.1662H174.363C175.91 10.1662 179.256 10.2423 179.256 13.3897C179.256 16.3299 176.137 16.6132 174.363 16.6132H171.188Z" fill="#275FA1"/>
<path d="M189.245 8.49023H187.127V27.4837H189.245V8.49023Z" fill="#275FA1"/>
<path fill-rule="evenodd" clip-rule="evenodd" d="M193.922 27.5139H195.603V10.7774L205.697 27.5139H207.378V8.46094H205.697V24.2714L196.194 8.46094H193.922V27.5139Z" fill="#275FA1"/>
<defs>
<linearGradient id="paint0_linear" x1="123.035" y1="-3.54076e-06" x2="105.939" y2="10.1034" gradientUnits="userSpaceOnUse">
<stop stop-color="#39AFFD"/>
<stop offset="1" stop-color="#3A76FF"/>
</linearGradient>
<linearGradient id="paint1_linear" x1="123.062" y1="14.6367" x2="104.287" y2="23.5946" gradientUnits="userSpaceOnUse">
<stop stop-color="#39AFFD"/>
<stop offset="1" stop-color="#3A76FF"/>
</linearGradient>
</defs>
</svg>
