<svg width="24" height="24" viewBox="0 0 24 24" fill="none" xmlns="http://www.w3.org/2000/svg">
<path d="M9.81415 13.7598C11.2058 15.1716 12.8897 16.2615 14.7475 16.9532L17.2608 14.9532C17.3353 14.9018 17.4237 14.8744 17.5141 14.8744C17.6046 14.8744 17.693 14.9018 17.7675 14.9532L22.4342 17.9598C22.6113 18.0663 22.7613 18.2126 22.8722 18.387C22.9832 18.5615 23.052 18.7593 23.0733 18.9649C23.0947 19.1705 23.0679 19.3783 22.9952 19.5718C22.9224 19.7653 22.8057 19.9392 22.6541 20.0798L20.4675 22.2398C20.1543 22.5492 19.7694 22.7763 19.3472 22.9008C18.9249 23.0253 18.4784 23.0433 18.0475 22.9532C13.749 22.0654 9.7869 19.9862 6.61414 16.9532C3.5118 13.89 1.36499 9.99239 0.434144 5.73316C0.342188 5.30892 0.36138 4.86812 0.489861 4.45348C0.618342 4.03883 0.851754 3.66441 1.16748 3.36649L3.43414 1.17983C3.57441 1.03568 3.74547 0.925143 3.93451 0.856478C4.12355 0.787813 4.32568 0.762805 4.52575 0.783325C4.72583 0.803846 4.91867 0.869364 5.08983 0.974973C5.261 1.08058 5.40606 1.22355 5.51414 1.39316L8.62081 5.99983C8.6744 6.07216 8.70332 6.1598 8.70332 6.24983C8.70332 6.33985 8.6744 6.42749 8.62081 6.49983L6.57414 8.95983C7.28453 10.7805 8.3913 12.4201 9.81415 13.7598Z" fill="#BFBFBF"/>
</svg>
