<svg width="38" height="38" viewBox="0 0 38 38" fill="none" xmlns="http://www.w3.org/2000/svg">
<path d="M19 38C29.4934 38 38 29.4934 38 19C38 8.50659 29.4934 0 19 0C8.50659 0 0 8.50659 0 19C0 29.4934 8.50659 38 19 38Z" fill="#F0F0F0"/>
<path d="M36.8182 25.6087C37.582 23.5504 38 21.3241 38 19C38 16.6759 37.582 14.4497 36.8182 12.3913H1.18179C0.418074 14.4497 0 16.6759 0 19C0 21.3241 0.418074 23.5504 1.18179 25.6087L19 27.2608L36.8182 25.6087Z" fill="#0052B4"/>
<path d="M19 38C27.1693 38 34.1336 32.8439 36.8182 25.6087H1.18176C3.86633 32.8439 10.8306 38 19 38Z" fill="#D80027"/>
</svg>
