<svg width="2189" height="389" viewBox="0 0 2189 389" fill="none" xmlns="http://www.w3.org/2000/svg">
<path fill-rule="evenodd" clip-rule="evenodd" d="M9.08992 17.8864C24.0657 -1.94757 52.2847 -5.8859 72.1187 9.08992C354.675 222.437 529.114 291.901 652.935 297.698C771.045 303.227 850.384 251.783 949.949 187.225C952.671 185.46 955.408 183.685 958.162 181.901C1061.08 115.228 1181.05 41.106 1369.57 38.8175C1555.86 36.5558 1803.23 104.316 2164.71 303.416C2186.48 315.407 2194.41 342.774 2182.42 364.543C2170.43 386.312 2143.06 394.24 2121.29 382.25C1765.78 186.435 1534.52 126.821 1370.66 128.811C1209.01 130.773 1107.3 192.527 1007.09 257.437C1002.57 260.367 998.038 263.315 993.492 266.271C897.879 328.442 796.278 394.507 648.726 387.6C496.641 380.48 303.83 296.819 17.8864 80.9152C-1.94757 65.9393 -5.8859 37.7204 9.08992 17.8864Z" fill="url(#paint0_angular)"/>
<defs>
<radialGradient id="paint0_angular" cx="0" cy="0" r="1" gradientUnits="userSpaceOnUse" gradientTransform="translate(1221.19 149.581) rotate(90) scale(149.581 966.827)">
<stop offset="0.504455" stop-color="#00CF85"/>
<stop offset="1" stop-color="#0078CF"/>
</radialGradient>
</defs>
</svg>
