<svg width="2590" height="790" viewBox="0 0 2590 790" fill="none" xmlns="http://www.w3.org/2000/svg">
<g filter="url(#filter0_f)">
<path fill-rule="evenodd" clip-rule="evenodd" d="M210.087 218.884C225.063 199.05 253.282 195.112 273.116 210.087C555.673 423.434 730.111 492.899 853.933 498.696C972.042 504.225 1051.38 452.781 1150.95 388.223C1153.67 386.458 1156.41 384.683 1159.16 382.899C1262.08 316.226 1382.05 242.104 1570.56 239.815C1756.86 237.553 2004.23 305.313 2365.71 504.414C2387.48 516.404 2395.41 543.772 2383.42 565.541C2371.43 587.31 2344.06 595.237 2322.29 583.247C1966.77 387.433 1735.52 327.819 1571.66 329.808C1410.01 331.771 1308.29 393.524 1208.09 458.435C1203.57 461.365 1199.04 464.312 1194.49 467.268C1098.88 529.44 997.276 595.505 849.724 588.597C697.639 581.477 504.827 497.817 218.884 281.913C199.05 266.937 195.112 238.718 210.087 218.884Z" fill="url(#paint0_angular)" fill-opacity="0.25"/>
</g>
<defs>
<filter id="filter0_f" x="0.997559" y="0.997559" width="2588.01" height="788.098" filterUnits="userSpaceOnUse" color-interpolation-filters="sRGB">
<feFlood flood-opacity="0" result="BackgroundImageFix"/>
<feBlend mode="normal" in="SourceGraphic" in2="BackgroundImageFix" result="shape"/>
<feGaussianBlur stdDeviation="100" result="effect1_foregroundBlur"/>
</filter>
<radialGradient id="paint0_angular" cx="0" cy="0" r="1" gradientUnits="userSpaceOnUse" gradientTransform="translate(1416.95 414.044) rotate(90) scale(168.043 927.053)">
<stop offset="0.504455" stop-color="#00CF85"/>
<stop offset="1" stop-color="#0078CF"/>
</radialGradient>
</defs>
</svg>
