<svg width="1684" height="1664" viewBox="0 0 1684 1664" fill="none" xmlns="http://www.w3.org/2000/svg">
<g filter="url(#filter0_f)">
<path fill-rule="evenodd" clip-rule="evenodd" d="M1277.81 879.163C1284.23 970.681 1299.21 1079.07 1234.59 1144.15C1170.11 1209.08 1059.6 1167.45 970.586 1188.55C892.414 1207.08 823.659 1282.34 746.533 1259.84C669.224 1237.3 649.39 1138.66 595.195 1079.06C531.031 1008.5 407.878 974.276 400.391 879.163C392.982 785.041 492.486 719.03 561.812 654.992C619.056 602.116 693.34 582.651 761.756 545.368C851.557 496.431 924.896 381.069 1024.85 402.663C1123.14 423.899 1152.06 551.019 1199.23 639.885C1239.58 715.887 1271.79 793.312 1277.81 879.163Z" fill="url(#paint0_angular)" fill-opacity="0.25"/>
</g>
<defs>
<filter id="filter0_f" x="0" y="0" width="1684" height="1664" filterUnits="userSpaceOnUse" color-interpolation-filters="sRGB">
<feFlood flood-opacity="0" result="BackgroundImageFix"/>
<feBlend mode="normal" in="SourceGraphic" in2="BackgroundImageFix" result="shape"/>
<feGaussianBlur stdDeviation="200" result="effect1_foregroundBlur"/>
</filter>
<radialGradient id="paint0_angular" cx="0" cy="0" r="1" gradientUnits="userSpaceOnUse" gradientTransform="translate(943.288 882.222) rotate(-180) scale(340.711 381.78)">
<stop offset="0.504455" stop-color="#00CF85"/>
<stop offset="1" stop-color="#0078CF"/>
</radialGradient>
</defs>
</svg>
