<svg width="19" height="21" viewBox="0 0 19 21" fill="none" xmlns="http://www.w3.org/2000/svg">
<path d="M16.0002 14.25C15.5961 14.2499 15.1962 14.3316 14.8247 14.4903C14.4531 14.649 14.1175 14.8814 13.8383 15.1734L6.90079 11.2702C7.03517 10.7655 7.03517 10.2345 6.90079 9.72985L13.8383 5.82657C14.3435 6.35032 15.0223 6.67192 15.7475 6.73111C16.4728 6.79029 17.1948 6.58302 17.7782 6.1481C18.3616 5.71319 18.7665 5.08048 18.9169 4.3685C19.0673 3.65653 18.9529 2.91415 18.5952 2.28043C18.2376 1.64672 17.6611 1.16515 16.9739 0.925954C16.2866 0.686756 15.5357 0.706336 14.8619 0.981027C14.188 1.25572 13.6375 1.76667 13.3133 2.41817C12.9891 3.06966 12.9136 3.817 13.1009 4.52016L6.16344 8.42344C5.74904 7.99136 5.21485 7.69315 4.62957 7.56718C4.04429 7.4412 3.43471 7.49321 2.87924 7.71653C2.32377 7.93985 1.84782 8.32425 1.51262 8.8203C1.17741 9.31634 0.998291 9.90132 0.998291 10.5C0.998291 11.0987 1.17741 11.6837 1.51262 12.1797C1.84782 12.6758 2.32377 13.0602 2.87924 13.2835C3.43471 13.5068 4.04429 13.5588 4.62957 13.4328C5.21485 13.3069 5.74904 13.0086 6.16344 12.5766L13.1009 16.4798C12.9401 17.0854 12.9729 17.7261 13.1947 18.3121C13.4165 18.8981 13.8163 19.3999 14.3378 19.7472C14.8593 20.0944 15.4765 20.2696 16.1027 20.2483C16.7289 20.2269 17.3327 20.01 17.8294 19.628C18.326 19.246 18.6906 18.7181 18.872 18.1184C19.0533 17.5186 19.0424 16.8772 18.8406 16.284C18.6388 15.6908 18.2564 15.1757 17.747 14.8109C17.2376 14.4461 16.6267 14.25 16.0002 14.25Z" fill="#1F1F1F"/>
</svg>
