<svg width="38" height="38" viewBox="0 0 38 38" fill="none" xmlns="http://www.w3.org/2000/svg">
<path d="M0 19C0 21.3241 0.418074 23.5504 1.18179 25.6087L19 27.2608L36.8182 25.6087C37.5819 23.5504 38 21.3241 38 19C38 16.6759 37.5819 14.4497 36.8182 12.3913L19 10.7392L1.18179 12.3913C0.418074 14.4497 0 16.6759 0 19H0Z" fill="#FFDA44"/>
<path d="M36.8182 12.3913C34.1336 5.1562 27.1693 0 19 0C10.8306 0 3.86633 5.1562 1.18176 12.3913H36.8182Z" fill="#D80027"/>
<path d="M1.18176 25.6087C3.86633 32.8438 10.8306 38 19 38C27.1693 38 34.1336 32.8438 36.8182 25.6087H1.18176Z" fill="#D80027"/>
</svg>
