<svg width="38" height="38" viewBox="0 0 38 38" fill="none" xmlns="http://www.w3.org/2000/svg">
<path d="M19 38C29.4934 38 38 29.4934 38 19C38 8.50659 29.4934 0 19 0C8.50659 0 0 8.50659 0 19C0 29.4934 8.50659 38 19 38Z" fill="#D80027"/>
<path d="M18.222 15.5255L19.781 17.6738L22.3057 16.8552L20.7443 19.0016L22.303 21.1497L19.7792 20.328L18.2179 22.4744L18.2195 19.8203L15.6956 18.9985L18.2204 18.1799L18.222 15.5255Z" fill="#F0F0F0"/>
<path d="M13.9675 24.3696C11.002 24.3696 8.59793 21.9655 8.59793 19C8.59793 16.0345 11.002 13.6304 13.9675 13.6304C14.8921 13.6304 15.7621 13.8643 16.5217 14.2758C15.3301 13.1104 13.7005 12.3913 11.9023 12.3913C8.25237 12.3913 5.29364 15.3501 5.29364 18.9999C5.29364 22.6498 8.25244 25.6086 11.9023 25.6086C13.7006 25.6086 15.3302 24.8893 16.5217 23.724C15.7621 24.1357 14.8921 24.3696 13.9675 24.3696V24.3696Z" fill="#F0F0F0"/>
</svg>
