<svg width="39" height="27" viewBox="0 0 39 27" fill="none" xmlns="http://www.w3.org/2000/svg">
<path d="M15.9199 26.9634C8.59926 26.8286 6.0989 26.7073 4.56203 26.3907C3.52224 26.1803 2.61866 25.7132 1.95613 25.0357C1.44408 24.5229 1.03686 23.7406 0.720931 22.6551C0.449928 21.7508 0.34438 20.9985 0.193902 19.1606C-0.0364502 15.0129 -0.0913638 11.6218 0.193902 7.8327C0.429246 5.74027 0.543352 3.25632 2.10661 1.80716C2.84473 1.12894 3.70338 0.692484 4.66758 0.512053C6.17379 0.226074 12.5908 0 19.234 0C25.8621 0 32.2934 0.226074 33.8011 0.512053C35.0056 0.738127 36.1352 1.41563 36.7985 2.28926C38.2248 4.53288 38.2498 7.32279 38.3946 9.50508C38.4545 10.5449 38.4545 16.4492 38.3946 17.489C38.1692 20.9378 37.988 22.1581 37.476 23.4232C37.1594 24.222 36.8891 24.6434 36.4212 25.1106C35.6875 25.8294 34.7521 26.3076 33.7397 26.4813C27.4047 26.9577 22.0253 27.0611 15.9199 26.9634V26.9634ZM25.6211 13.1051C22.0966 11.2217 18.7219 9.47512 15.2723 7.66725V18.4831C18.9023 16.5098 22.7292 14.7019 25.636 13.0902L25.6211 13.1051Z" fill="#CD201F"/>
</svg>
