<svg width="40" height="28" viewBox="0 0 40 28" fill="none" xmlns="http://www.w3.org/2000/svg">
    <g clip-path="url(#clip0)">
        <path d="M26.3856 13.7794C22.8612 11.8959 19.4865 10.1643 16.0369 8.35645V19.1716C19.6669 17.1983 23.493 15.3911 26.4006 13.7794H26.3856Z" fill="white"/>
        <path d="M26.3856 13.7794C22.8611 11.8959 16.0369 8.35645 16.0369 8.35645L25.1354 14.4718C25.1361 14.4718 23.478 15.3911 26.3856 13.7794Z" fill="#E8E0E0"/>
        <path d="M16.7001 27.6377C9.37947 27.5029 6.87912 27.3817 5.34225 27.065C4.30245 26.8546 3.39887 26.3875 2.73634 25.71C2.22429 25.1972 1.81707 24.4149 1.50114 23.3295C1.23014 22.4252 1.12459 21.6728 0.974114 19.8349C0.743762 15.6872 0.688849 12.2961 0.974114 8.50702C1.20946 6.41459 1.32356 3.93063 2.88682 2.48148C3.62495 1.80326 4.4836 1.3668 5.44779 1.18637C6.954 0.90039 13.3711 0.674316 20.0142 0.674316C26.6423 0.674316 33.0736 0.90039 34.5813 1.18637C35.7858 1.41244 36.9155 2.08995 37.5787 2.96358C39.005 5.2072 39.03 7.9971 39.1748 10.1794C39.2347 11.2192 39.2347 17.1235 39.1748 18.1633C38.9494 21.6122 38.7683 22.8324 38.2562 24.0975C37.9396 24.8963 37.6693 25.3178 37.2014 25.7849C36.4677 26.5037 35.5323 26.9819 34.5199 27.1556C28.1849 27.632 22.8055 27.7354 16.7001 27.6377ZM26.4013 13.7795C22.8768 11.896 19.5021 10.1494 16.0525 8.34156V19.1574C19.6826 17.1841 23.5094 15.3762 26.4163 13.7645L26.4013 13.7795Z"
              fill="#CD201F"/>
    </g>
    <defs>
        <clipPath id="clip0">
            <rect width="38.4396" height="27" fill="white" transform="translate(0.780151 0.672852)"/>
        </clipPath>
    </defs>
</svg>
