<svg xmlns="http://www.w3.org/2000/svg" fill="none" viewBox="0 0 33 38"><path fill="#B3B3B3" fill-rule="evenodd" d="M15.378.918l-2.964 1.905 2.971 1.598V.926l-.007-.008zm-4.615 2.953l4.625 2.487.023 11.214-7.89-4.88.052-6.779 3.19-2.042zm-3.73 10.527L.548 17.184v3.354l6.47 3.024 7.576-4.486-7.565-4.678h.002zm.516 10.842l7.87-4.66.02 10.15-4.648 3.421-3.277-1.957.035-6.954zm4.827 9.859l3.083 1.833v-4.088l-3.083 2.255zM5.228 24.623l-4.675 2.77v-4.957l4.68 2.187h-.005zM1.67 28.716l4.167 2.488.026-4.969-4.18 2.486-.013-.005zM5.882 6.989L2.15 9.37l3.698 2.286.035-4.676v.01zm-5.317 3.4l4.696 2.905-4.703 2.023v-4.904l.007-.024z" clip-rule="evenodd"/><path fill="url(#paint0_linear)" fill-rule="evenodd" d="M17.204.914l.01 13.189 6.325 4.211 8.552-5.09.01-2.766L17.203.914z" clip-rule="evenodd"/><path fill="url(#paint1_linear)" fill-rule="evenodd" d="M32.126 15.55l-14.884 8.795v12.741l14.867-7.96.017-13.576z" clip-rule="evenodd"/><defs><linearGradient id="paint0_linear" x1="31.035" x2="13.939" y1=".914" y2="11.017" gradientUnits="userSpaceOnUse"><stop stop-color="#39AFFD"/><stop offset="1" stop-color="#3A76FF"/></linearGradient><linearGradient id="paint1_linear" x1="31.061" x2="12.287" y1="15.55" y2="24.508" gradientUnits="userSpaceOnUse"><stop stop-color="#39AFFD"/><stop offset="1" stop-color="#3A76FF"/></linearGradient></defs></svg>