<svg xmlns="http://www.w3.org/2000/svg" fill="none" viewBox="0 0 1678 910"><path fill="#fff" fill-rule="evenodd" d="M939.366 622.35c91.124 157.837 292.954 211.916 450.784 120.789 157.84-91.127 211.92-292.952 120.79-450.789-91.12-157.836-292.95-211.915-450.79-120.788-157.832 91.127-211.911 292.952-120.784 450.788zm-.866.5c91.4 158.315 293.84 212.558 452.15 121.155 158.32-91.403 212.56-293.84 121.16-452.155-91.4-158.314-293.84-212.557-452.16-121.154-158.31 91.403-212.553 293.84-121.15 452.154z" clip-rule="evenodd"/><path fill="#fff" d="M1102.96 160.704c-4.54 2.624-10.35 1.067-12.98-3.477-2.62-4.544-1.06-10.354 3.48-12.977 4.54-2.623 10.35-1.067 12.98 3.477 2.62 4.544 1.06 10.354-3.48 12.977z"/><path fill="#D9EAF2" d="M1102.46 159.838c-4.06 2.348-9.26.955-11.61-3.111-2.35-4.065-.95-9.264 3.11-11.611a8.499 8.499 0 0 1 11.61 3.111 8.493 8.493 0 0 1-3.11 11.611z"/><path fill="#D9EAF2" d="M1100.96 157.24a5.496 5.496 0 0 1-7.51-2.013 5.499 5.499 0 1 1 9.52-5.5 5.498 5.498 0 0 1-2.01 7.513z"/><path fill="#fff" fill-rule="evenodd" d="M1094.31 154.727c1.25 2.153 4 2.89 6.15 1.647a4.505 4.505 0 0 0 1.65-6.147 4.506 4.506 0 0 0-6.15-1.647 4.505 4.505 0 0 0-1.65 6.147zm-.86.5a5.498 5.498 0 0 0 9.52-5.5 5.497 5.497 0 1 0-9.52 5.5z" clip-rule="evenodd"/><path fill="#fff" d="M1229.35 131.613a5.508 5.508 0 0 1-7.52-2.013 5.51 5.51 0 0 1 2.02-7.513 5.497 5.497 0 0 1 7.51 2.013 5.498 5.498 0 0 1-2.01 7.513z"/><path fill="#D9EAF2" d="M1228.77 130.611a4.34 4.34 0 0 1-5.93-1.59 4.343 4.343 0 1 1 5.93 1.59z"/><path fill="#fff" fill-rule="evenodd" d="M.236 102.329a.5.5 0 0 1 .689.16c117.449 188.669 292.752 358.303 559.078 458.179 266.334 99.879 623.737 130.01 1105.407 39.594.27-.051.53.127.58.399a.502.502 0 0 1-.4.583c-481.79 90.44-839.386 60.321-1105.938-39.639C293.093 461.641 117.626 291.848.076 103.017a.5.5 0 0 1 .16-.688z" clip-rule="evenodd"/></svg>