<svg xmlns="http://www.w3.org/2000/svg" fill="none" viewBox="0 0 208 38"><path fill="#474747" fill-rule="evenodd" d="M.254 22.974c0 3.21 2.962 5.476 6.783 5.476 4.532 0 6.664-2.883 6.664-5.37 0-3.98-3.911-4.874-6.25-5.422-2.724-.65-4.325-1.221-4.325-3.235 0-1.643 1.065-3.357 3.759-3.357 3.32 0 4.031 2.143 4.088 3.307h2.192c-.06-2.438-1.954-4.974-6.012-4.974-4.532 0-6.218 2.934-6.218 5 0 4.228 4.826 4.402 7.638 5.32.949.3 2.934 1.096 2.934 3.334 0 1.964-1.63 3.728-4.532 3.728-4.086 0-4.473-3.057-4.532-3.809l-2.19.002zM18.489 28.326h2.035v-7.561h4.399c5.142 0 7.01-2.824 7.01-5.624 0-2.143-1.043-5.65-7.01-5.65h-6.434v18.835zm2.035-17.13h4.42c3.629 0 4.95 1.934 4.95 3.945 0 1.96-1.321 3.919-4.95 3.919h-4.42v-7.864zM33.28 28.34h1.722l2.305-6.311h7.407l2.305 6.31h1.722L41.915 9.507H40.15L33.27 28.34h.01zm4.651-8.018l3.102-8.628 3.057 8.627h-6.159zM67.218 14.384c-1.316-3.16-3.973-4.988-7.243-4.988-4.544 0-8.156 3.976-8.156 9.41 0 5.577 3.676 9.503 8.284 9.503 3.083 0 5.713-1.905 7.179-5.085h-1.869c-1.273 2.369-3.398 3.43-5.31 3.43-3.738 0-6.711-3.356-6.711-7.856 0-4.173 2.653-7.754 6.604-7.754 3.378 0 4.929 2.569 5.353 3.333l1.869.007z" clip-rule="evenodd"/><path fill="#474747" d="M60.103 28.395c-4.77 0-8.367-4.123-8.367-9.59 0-5.411 3.543-9.492 8.239-9.492 3.32 0 5.986 1.836 7.321 5.04l.047.117H65.3l-.024-.043c-.683-1.23-2.274-3.29-5.279-3.29-3.716 0-6.522 3.295-6.522 7.668 0 4.374 2.913 7.773 6.629 7.773 2.134 0 4.096-1.266 5.236-3.387l.024-.046h2.05l-.055.122c-1.502 3.257-4.146 5.128-7.255 5.128zm-.128-18.912c-4.6 0-8.063 4.006-8.063 9.322 0 5.371 3.524 9.421 8.198 9.421 3.003 0 5.564-1.79 7.046-4.919H65.47c-1.186 2.143-3.173 3.433-5.36 3.433-3.811 0-6.794-3.485-6.794-7.935 0-4.45 2.874-7.837 6.687-7.837 3.055 0 4.689 2.067 5.403 3.333h1.69c-1.327-3.064-3.915-4.818-7.121-4.818z"/><path fill="#474747" fill-rule="evenodd" d="M71.999 28.364h13.49V26.65h-11.03v-6.959h10.664v-1.714H74.458v-6.83h11.03V9.433H72v18.931z" clip-rule="evenodd"/><path fill="#B3B3B3" fill-rule="evenodd" d="M107.632.918l-2.964 1.905 2.971 1.598V.926l-.007-.008zm-4.615 2.953l4.624 2.487.024 11.214-7.89-4.88.052-6.779 3.19-2.042zm-3.73 10.527l-6.485 2.786v3.354l6.47 3.024 7.577-4.486-7.565-4.678h.002zm.516 10.842l7.869-4.66.022 10.15-4.649 3.421-3.277-1.957.035-6.954zm4.827 9.859l3.083 1.833v-4.088l-3.083 2.255zm-7.148-10.476l-4.675 2.77v-4.957l4.68 2.187h-.005zm-3.558 4.093l4.167 2.488.026-4.969-4.18 2.486-.013-.005zm4.212-21.727L94.403 9.37l3.698 2.286.035-4.676v.01zm-5.317 3.4l4.696 2.905-4.703 2.023v-4.904l.007-.024z" clip-rule="evenodd"/><path fill="url(#paint0_linear)" fill-rule="evenodd" d="M109.458.914l.01 13.189 6.325 4.211 8.552-5.09.009-2.766L109.458.914z" clip-rule="evenodd"/><path fill="url(#paint1_linear)" fill-rule="evenodd" d="M124.38 15.55l-14.884 8.795v12.741l14.867-7.96.017-13.576z" clip-rule="evenodd"/><path fill="#275FA1" fill-rule="evenodd" d="M146.092 14.556c-1.319-3.157-3.973-4.983-7.243-4.983-4.546 0-8.156 3.97-8.156 9.399 0 5.575 3.674 9.497 8.282 9.497 3.083 0 5.715-1.905 7.178-5.08h-1.868c-1.274 2.366-3.399 3.427-5.31 3.427-3.738 0-6.712-3.354-6.712-7.844 0-4.169 2.656-7.747 6.607-7.747 3.377 0 4.926 2.566 5.353 3.333l1.869-.002zM149.248 28.369h1.725l2.302-6.333h7.409l2.305 6.332h1.722l-6.828-18.895h-1.764l-6.878 18.895h.007zm4.654-8.045l3.099-8.656 3.059 8.656h-6.158zM169.326 28.435h5.806c6.923 0 7.639-3.895 7.639-5.39 0-1.985-1.058-4.152-3.69-4.847 1.114-.619 2.544-1.755 2.544-3.81 0-4.794-4.805-5.027-7.008-5.027h-5.291v19.074zm2.116-1.728v-7.452h3.69c2.089 0 5.492.336 5.492 3.81 0 3.332-3.517 3.635-5.492 3.635l-3.69.007zm0-9.18V11.08h3.175c1.547 0 4.893.076 4.893 3.223 0 2.94-3.119 3.224-4.893 3.224h-3.175z" clip-rule="evenodd"/><path fill="#275FA1" d="M189.499 9.404h-2.118v18.993h2.118V9.404z"/><path fill="#275FA1" fill-rule="evenodd" d="M194.176 28.428h1.681V11.692l10.094 16.736h1.681V9.375h-1.681v15.81l-9.503-15.81h-2.272v19.053z" clip-rule="evenodd"/><defs><linearGradient id="paint0_linear" x1="123.289" x2="106.193" y1=".914" y2="11.017" gradientUnits="userSpaceOnUse"><stop stop-color="#39AFFD"/><stop offset="1" stop-color="#3A76FF"/></linearGradient><linearGradient id="paint1_linear" x1="123.315" x2="104.541" y1="15.55" y2="24.508" gradientUnits="userSpaceOnUse"><stop stop-color="#39AFFD"/><stop offset="1" stop-color="#3A76FF"/></linearGradient></defs></svg>