<svg xmlns="http://www.w3.org/2000/svg" fill="none" viewBox="0 0 160 184"><style>@keyframes logoAnim{0%{transform:rotate(360deg) scale(0)}to{transform:rotate(0deg) scale(1)}}</style><defs xmlns="http://www.w3.org/2000/svg"><linearGradient id="a" x1="25%" x2="75%" y1="0%" y2="100%"><stop offset="0%" stop-color="#39AFFD"><animate attributeName="stop-color" dur="1s" repeatCount="indefinite" values="#39AFFD; #3A76FF; #39AFFD"/></stop><stop offset="100%" stop-color="#3A76FF"><animate attributeName="stop-color" dur="1s" repeatCount="indefinite" values="#3A76FF; #39AFFD; #3A76FF"/></stop></linearGradient></defs><g style="transform-origin:50% 50%;animation:logoAnim 1s ease 1 alternate"><path fill="#B3B3B3" d="M75.14.01L60.118 9.66l15.056 8.094V.046L75.14.01zM51.754 14.968l23.432 12.605.12 56.817L35.33 59.66l.264-34.342 16.162-10.35zM32.853 68.31L0 82.424V99.42l32.781 15.32 38.393-22.727L32.84 68.31h.012zm2.62 54.934l39.87-23.607.109 51.424-23.553 17.335-16.607-9.916.18-35.236zm24.453 49.953l15.622 9.288v-20.712l-15.622 11.424zM23.71 120.12L.024 134.149v-25.115l23.709 11.086h-.024zM5.684 140.856l21.113 12.606.132-25.175L5.744 140.88l-.06-.024zM27.025 30.77L8.111 42.833l18.734 11.58.18-23.691v.048zM.085 47.996l23.792 14.717L.048 72.966v-24.85l.036-.12z"/><g fill="url(#a)"><path d="M84.392 0l.048 66.829 32.048 21.339 43.332-25.79.048-14.018L84.392 0zM160 74.157l-75.416 44.56v64.561l75.332-40.339.084-68.782z"/></g></g></svg>